<?xml version="1.0" encoding="UTF-8"?>
<svg id="Laag_2" data-name="Laag 2" xmlns="http://www.w3.org/2000/svg" viewBox="0 0 1531.03 1434.57">
  <defs>
    <style>
      .cls-1 {
        fill: none;
        stroke: #fff;
        stroke-miterlimit: 10;
        stroke-width: 2px;
      }

      .cls-2 {
        fill: #fff;
        stroke-width: 0px;
      }
    </style>
  </defs>
  <g id="Laag_1-2" data-name="Laag 1">
    <g>
      <g>
        <path class="cls-2" d="M31.94,385.21l1.3,151.53c0,24.44,4.24,34.54,22.81,53.44v.65H7.82v-.65c14.66-18.9,17.92-29,17.92-53.44v-148.27c-4.56-16.29-12.06-26.07-25.74-35.52v-.65h39.43l151.85,197.48-.98-143.38c-.33-24.44-3.91-34.54-19.88-53.44v-.65h44.97v.65c-14.66,18.9-17.92,29-17.92,53.44v184.44l-6.84.98L31.94,385.21Z"/>
        <path class="cls-2" d="M399.52,590.83h-160v-.65c8.47-16.29,12.71-27.05,12.71-44.97v-147.29c0-18.25-4.24-28.68-12.71-44.97v-.65h143.71l12.71,52.14-2.61.98c-16.29-19.23-33.56-44.97-45.62-45.62l-68.43-2.28v110.14h41.06c12.06,0,22.48-19.55,31.28-30.96h2.61v66.48h-2.61c-8.47-9.78-19.23-29-31.28-29h-41.06v111.45l71.04-2.28c23.46-.98,43.01-25.42,60.94-51.81l2.61.98-14.34,58.33Z"/>
        <path class="cls-2" d="M498.91,593.76l-61.26-197.48c-7.82-24.77-12.06-33.56-23.14-43.34v-.65h55.72v.65c-5.21,7.82-11.41,21.51-4.24,44.64l47.58,155.11,53.12-141.75-5.21-14.66c-8.47-24.77-13.04-33.56-24.11-43.34v-.65h57.03v.65c-5.54,7.5-12.71,20.86-4.56,44.64l53.77,154.46,43.67-141.43c9.45-31.61,1.96-48.55-4.24-57.68v-.65h43.01v.65c-15.32,13.69-21.18,26.07-29.65,52.79l-58.33,188.02h-7.82l-59.96-172.38-63.54,172.38h-7.82Z"/>
      </g>
      <g>
        <path class="cls-2" d="M728.09,593.76l-61.26-197.48c-7.82-24.77-12.06-33.56-23.14-43.34v-.65h55.72v.65c-5.21,7.82-11.41,21.51-4.24,44.64l47.58,155.11,53.12-141.75-5.21-14.66c-8.47-24.77-13.04-33.56-24.11-43.34v-.65h57.03v.65c-5.54,7.5-12.71,20.86-4.56,44.64l53.77,154.46,43.67-141.43c9.45-31.61,1.96-48.55-4.24-57.68v-.65h43.01v.65c-15.32,13.69-21.18,26.07-29.65,52.79l-58.33,188.02h-7.82l-59.96-172.38-63.54,172.38h-7.82Z"/>
        <path class="cls-2" d="M1130.86,590.83h-160v-.65c8.47-16.29,12.71-27.05,12.71-44.97v-147.29c0-18.25-4.24-28.68-12.71-44.97v-.65h143.71l12.71,52.14-2.61.98c-16.29-19.23-33.56-44.97-45.62-45.62l-68.43-2.28v110.14h41.06c12.06,0,22.48-19.55,31.28-30.96h2.61v66.48h-2.61c-8.47-9.78-19.23-29-31.28-29h-41.06v111.45l71.04-2.28c23.46-.98,43.01-25.42,60.94-51.81l2.61.98-14.34,58.33Z"/>
        <path class="cls-2" d="M1299.99,408.67l-2.61.98c-17.6-43.01-40.08-55.72-64.52-55.72-29.98,0-43.99,18.25-43.99,40.41,0,32.91,29.65,44.64,60.61,58.98,32.91,14.99,66.8,31.28,66.8,75.6,0,47.9-39.1,66.8-83.75,66.8-22.16,0-44.97-4.89-64.52-12.38l-6.52-52.79,2.61-.98c19.55,41.38,42.36,59.63,76.25,59.63s51.49-20.53,51.49-48.23c0-35.52-27.05-49.53-56.7-62.89-33.24-15.32-67.13-29.98-67.13-71.69s31.93-58.98,72.67-58.98c19.55,0,38.45,4.24,52.79,9.78l6.52,51.49Z"/>
        <path class="cls-2" d="M1452.82,590.83h-52.79v-.65c10.75-16.62,13.04-26.07,13.04-48.23v-183.79l-43.34,1.3c-12.06.33-31.28,33.24-45.29,54.75l-2.61-.98,12.38-60.94h184.12l12.71,60.94-2.61.98c-14.34-21.51-33.56-54.42-45.62-54.75l-43.01-1.3v183.79c0,22.48,2.28,31.61,13.04,48.23v.65Z"/>
      </g>
    </g>
    <g>
      <path class="cls-2" d="M339.04,819.88c-2.42,2.27-3.93,5.14-3.93,7.71,0,1.59,1.89,4.16,3.4,5.82v.15l-5.97,4.76c-1.96-1.36-3.4-3.78-3.4-6.2,0-5.21,5.37-10.2,9.52-12.69l.38.45ZM351.88,819.88c-2.42,2.27-3.93,5.14-3.93,7.71,0,1.59,1.89,4.16,3.4,5.82v.15l-5.97,4.76c-1.96-1.36-3.4-3.78-3.4-6.2,0-5.21,5.37-10.2,9.52-12.69l.38.45Z"/>
      <path class="cls-2" d="M368.2,822.53v48.59h26.6v5.36h-32.94v-53.95h6.35Z"/>
      <path class="cls-2" d="M416.48,877.24c-11.71,0-19.04-8.54-19.04-20.4s7.63-20.17,18.81-20.17c13.3,0,17.68,10.35,17.98,20.48,0,.45.07.98.07,1.51h-31.05c.53,8.46,5.67,13.6,13.07,13.6,5.52,0,9.97-2.42,11.48-7.4h5.97c-2.27,8.01-8.62,12.39-17.3,12.39ZM428.19,853.81c-.68-7.48-4.54-12.24-11.94-12.24s-12.09,4.99-12.92,12.24h24.86Z"/>
      <path class="cls-2" d="M454.18,871.49h2.79v4.99h-3.25c-7.18,0-10.28-4.08-10.28-9.82v-24.26h-5.89v-4.99h5.89v-9.22l5.89-2.72v11.94h7.48v4.99h-7.48v23.95c0,3.33,1.81,5.14,4.84,5.14Z"/>
      <path class="cls-2" d="M496.12,870.59h.08l11.56-33.17h6.42c-5.89,15.57-11.79,31.13-17.61,46.7-1.74,4.61-4.38,7.48-9.67,7.48h-4.76v-5.06h4c3.93,0,4.61-2.57,5.67-5.44l1.36-3.48-16.32-40.2h6.42c4.31,11.11,8.54,22.14,12.85,33.17Z"/>
      <path class="cls-2" d="M516.44,856.99c0-11.26,7.48-20.33,19.34-20.33s19.42,9.07,19.42,20.33-7.48,20.25-19.42,20.25-19.34-8.99-19.34-20.25ZM535.79,872.17c8.01,0,13.38-6.8,13.38-15.19s-5.37-15.26-13.38-15.26-13.3,6.8-13.3,15.26,5.37,15.19,13.3,15.19Z"/>
      <path class="cls-2" d="M562.31,837.42h6.04v24.56c0,7.4,3.32,10.2,8.76,10.2,5.82,0,11.18-4.53,11.18-15.26v-19.5h6.04v39.07h-6.04v-7.4c-2.04,4.46-5.59,8.16-11.86,8.16-9.67,0-14.13-5.97-14.13-14.73v-25.09Z"/>
      <path class="cls-2" d="M610.21,845.2c1.96-5.44,5.74-7.93,11.86-7.93v5.67c-.83,0-2.27.15-3.48.53-4.38,1.13-8.39,3.78-8.39,14.13v18.89h-6.04v-39.07h6.04v7.78Z"/>
      <path class="cls-2" d="M683.35,856.91c0,11.71-6.5,20.33-17.76,20.33-7.18,0-11.94-4.38-13.6-8.61h-.08v22.97h-6.04v-54.18h6.04v7.93h.08c1.66-4.16,6.42-8.69,13.6-8.69,11.26,0,17.76,8.46,17.76,20.25ZM664.54,872.1c8.46,0,12.77-6.5,12.77-15.19s-4.53-15.19-12.77-15.19c-8.69,0-12.85,7.1-12.85,15.19s3.93,15.19,12.85,15.19Z"/>
      <path class="cls-2" d="M696.8,845.2c1.96-5.44,5.74-7.93,11.86-7.93v5.67c-.83,0-2.27.15-3.48.53-4.38,1.13-8.39,3.78-8.39,14.13v18.89h-6.04v-39.07h6.04v7.78Z"/>
      <path class="cls-2" d="M731.4,877.24c-11.71,0-19.04-8.54-19.04-20.4s7.63-20.17,18.82-20.17c13.3,0,17.68,10.35,17.98,20.48,0,.45.08.98.08,1.51h-31.06c.53,8.46,5.67,13.6,13.07,13.6,5.52,0,9.97-2.42,11.49-7.4h5.97c-2.27,8.01-8.61,12.39-17.3,12.39ZM743.12,853.81c-.68-7.48-4.53-12.24-11.94-12.24s-12.09,4.99-12.92,12.24h24.86Z"/>
      <path class="cls-2" d="M769.56,841.72c-3.93,0-7.86,2.04-7.86,5.82,0,3.4,3.1,5.14,6.8,6.04l5.21,1.36c5.82,1.44,11.48,4.16,11.48,10.5,0,8.24-8.46,11.79-15.19,11.79s-14.66-3.02-15.57-12.47h6.04c.83,5.14,4.23,7.4,9.75,7.4,4.31,0,8.92-1.59,8.92-6.35,0-3.55-3.25-4.76-7.18-5.74-1.89-.53-3.55-.91-5.44-1.44-5.67-1.36-10.88-4.76-10.88-10.88,0-7.18,7.41-11.11,14.13-11.11,7.48,0,13.9,3.93,14.81,12.47h-5.97c-.53-5.44-4.84-7.41-9.07-7.41Z"/>
      <path class="cls-2" d="M809.45,877.24c-11.71,0-19.04-8.54-19.04-20.4s7.63-20.17,18.81-20.17c13.3,0,17.68,10.35,17.98,20.48,0,.45.07.98.07,1.51h-31.05c.53,8.46,5.67,13.6,13.07,13.6,5.52,0,9.97-2.42,11.48-7.4h5.97c-2.27,8.01-8.62,12.39-17.3,12.39ZM821.17,853.81c-.68-7.48-4.54-12.24-11.94-12.24s-12.09,4.99-12.92,12.24h24.86Z"/>
      <path class="cls-2" d="M834.92,837.42h6.04v7.33c2.04-4.38,5.67-8.08,11.86-8.08,9.67,0,14.13,5.97,14.13,14.73v25.09h-6.04v-24.56c0-7.4-3.32-10.2-8.76-10.2-5.82,0-11.18,4.53-11.18,15.26v19.49h-6.04v-39.07Z"/>
      <path class="cls-2" d="M893.78,877.24c-12.09,0-19.72-8.76-19.72-20.25s7.63-20.33,19.72-20.33c9.6,0,15.11,5.21,16.85,12.17h-6.12c-1.51-3.85-4.61-7.25-10.88-7.25-8.23,0-13.53,6.73-13.53,15.42s5.29,15.26,13.53,15.26c5.74,0,9.37-2.64,11.11-7.48h6.12c-2.12,7.86-7.86,12.47-17.08,12.47Z"/>
      <path class="cls-2" d="M935.48,877.24c-11.71,0-19.04-8.54-19.04-20.4s7.63-20.17,18.81-20.17c13.3,0,17.68,10.35,17.98,20.48,0,.45.07.98.07,1.51h-31.05c.53,8.46,5.67,13.6,13.07,13.6,5.52,0,9.97-2.42,11.48-7.4h5.97c-2.27,8.01-8.62,12.39-17.3,12.39ZM947.2,853.81c-.68-7.48-4.54-12.24-11.94-12.24s-12.09,4.99-12.92,12.24h24.86Z"/>
      <path class="cls-2" d="M1015.27,856.91c0,11.71-6.5,20.33-17.76,20.33-7.18,0-11.94-4.38-13.6-8.61h-.08v7.86h-6.04v-53.95h6.04v22.82h.08c1.66-4.16,6.42-8.69,13.6-8.69,11.26,0,17.76,8.46,17.76,20.25ZM996.46,872.1c8.46,0,12.77-6.5,12.77-15.19s-4.53-15.19-12.77-15.19c-8.69,0-12.85,7.1-12.85,15.19s3.93,15.19,12.85,15.19Z"/>
      <path class="cls-2" d="M1039.45,877.24c-11.71,0-19.04-8.54-19.04-20.4s7.63-20.17,18.82-20.17c13.3,0,17.68,10.35,17.98,20.48,0,.45.08.98.08,1.51h-31.06c.53,8.46,5.67,13.6,13.07,13.6,5.52,0,9.97-2.42,11.49-7.4h5.97c-2.27,8.01-8.61,12.39-17.3,12.39ZM1051.16,853.81c-.68-7.48-4.53-12.24-11.94-12.24s-12.09,4.99-12.92,12.24h24.86Z"/>
      <path class="cls-2" d="M1094.15,822.53h4.15v5.06h-2.79c-2.87,0-4.91,1.13-4.91,5.44v4.38h6.65v4.99h-6.65v34.08h-5.89v-34.08h-5.44v-4.99h5.44v-4.68c0-5.29,2.72-10.2,9.45-10.2Z"/>
      <path class="cls-2" d="M1119.09,877.24c-11.71,0-19.04-8.54-19.04-20.4s7.63-20.17,18.82-20.17c13.3,0,17.68,10.35,17.98,20.48,0,.45.08.98.08,1.51h-31.06c.53,8.46,5.67,13.6,13.07,13.6,5.52,0,9.97-2.42,11.49-7.4h5.97c-2.27,8.01-8.61,12.39-17.3,12.39ZM1130.8,853.81c-.68-7.48-4.53-12.24-11.94-12.24s-12.09,4.99-12.92,12.24h24.86Z"/>
      <path class="cls-2" d="M1150.59,822.53v53.95h-6.04v-53.95h6.04Z"/>
      <path class="cls-2" d="M1172.65,871.49h2.8v4.99h-3.25c-7.18,0-10.28-4.08-10.28-9.82v-24.26h-5.89v-4.99h5.89v-9.22l5.89-2.72v11.94h7.48v4.99h-7.48v23.95c0,3.33,1.81,5.14,4.84,5.14Z"/>
      <path class="cls-2" d="M1181.64,836.28c2.19-2.27,3.93-5.21,3.93-7.71,0-1.51-1.66-3.7-3.1-5.14v-.15l4.84-3.85c1.74,1.21,2.95,3.25,2.95,5.29,0,5.06-4.76,9.52-8.16,12.01l-.45-.45ZM1193.28,836.28c2.19-2.27,3.93-5.21,3.93-7.71,0-1.51-1.66-3.7-3.1-5.14v-.15l4.84-3.85c1.66,1.21,2.95,3.25,2.95,5.29,0,5.06-4.76,9.52-8.16,12.01l-.45-.45Z"/>
    </g>
    <line class="cls-1" x1="765.52" y1="1090.59" x2="765.52" y2="1434.57"/>
    <g>
      <path class="cls-2" d="M554.4.8c0-.46.33-.8.8-.8h15.66c.4,0,1,.27,1.33.6l5.51,5.51c.33.33.6.93.6,1.33v12.54c0,.46-.27,1.06-.6,1.33l-1.92,1.99c-.33.33-.33.86-.07,1.13l2.06,2.06c.27.33.53.93.53,1.33v15.33c0,.4-.27,1-.6,1.33l-5.51,5.51c-.33.33-.93.6-1.33.6h-15.66c-.46,0-.8-.33-.8-.8V.8ZM562.23,7.03c-.46,0-.8.33-.8.8v11.74c0,.46.33.8.8.8h5.71c.4,0,1.06-.2,1.33-.53l1.46-1.39c.26-.33.53-.93.53-1.39v-6.7c0-.4-.27-1.06-.53-1.33l-1.46-1.46c-.27-.27-.93-.53-1.33-.53h-5.71ZM570.72,41.53c.26-.27.53-.93.53-1.33v-9.49c0-.46-.27-1.06-.53-1.39l-1.33-1.33c-.33-.33-.93-.6-1.33-.6h-5.84c-.46,0-.8.4-.8.8v14.53c0,.46.33.8.8.8h5.71c.4,0,1.06-.27,1.33-.53l1.46-1.46Z"/>
      <path class="cls-2" d="M608.79,24.08c0,.46-.26,1.06-.6,1.39l-2.06,2.06c-.33.33-.53.93-.4,1.33l3.65,20.9c.07.46-.27.8-.66.8h-5.57c-.46,0-.86-.33-.93-.8l-3.05-17.45c-.07-.4-.46-.73-.93-.73h-5.51c-.4,0-.8.33-.73.73v17.45c0,.4-.4.8-.79.8h-5.44c-.46,0-.79-.33-.86-.8V.86c0-.46.33-.8.79-.8h15.59c.46,0,1.06.27,1.39.6l5.51,5.51c.33.33.6.93.6,1.33v16.59ZM601.17,22.56c.33-.33.6-.93.6-1.39v-10.75c0-.4-.27-1.06-.6-1.33l-1.39-1.39c-.33-.33-.93-.6-1.33-.6h-5.71c-.4,0-.8.4-.8.8v15.79c0,.46.4.8.8.8h5.71c.4,0,1-.2,1.33-.53l1.39-1.39Z"/>
      <path class="cls-2" d="M627.7.8c.07-.4.53-.73.99-.73h5.31c.46-.07.93.33.99.73l11.94,48.96c.13.46-.2.8-.6.8h-5.77c-.46,0-.86-.33-1-.8l-1.66-6.97c-.07-.4-.53-.8-1-.73h-10.88c-.46,0-.93.33-1,.73l-1.66,6.97c-.13.46-.53.8-1,.8h-5.77c-.4,0-.66-.33-.6-.8l11.68-48.96ZM627.1,34.1c-.07.46.2.8.6.8h7.5c.46,0,.73-.4.6-.8l-4.18-17.18c-.13-.46-.33-.46-.4,0l-4.11,17.18Z"/>
      <path class="cls-2" d="M669.89,26.21c.13.4.26.4.26-.07V.8c0-.4.4-.8.8-.8h5.44c.46,0,.8.4.8.8v48.96c0,.46-.33.8-.8.8h-4.38c-.46,0-.93-.33-1.06-.73l-10.22-28.46c-.2-.4-.27-.33-.27.07v28.33c0,.46-.4.8-.8.8h-5.44c-.46,0-.8-.33-.8-.8V.86c0-.46.33-.8.8-.8h5.44c.46,0,.93.33,1.06.73l9.16,25.41Z"/>
      <path class="cls-2" d="M684.62,50.56c-.46,0-.8-.33-.8-.8V.86c0-.46.33-.8.8-.8h15.66c.4,0,1.06.2,1.33.53l5.51,5.51c.33.33.6.93.6,1.39v35.63c0,.4-.27,1.06-.6,1.33l-5.51,5.51c-.27.33-.93.6-1.33.6h-15.66ZM697.36,43.52c.4,0,1.06-.27,1.33-.6l1.39-1.39c.33-.27.6-.93.6-1.33V10.42c0-.46-.27-1.06-.6-1.39l-1.39-1.39c-.27-.27-.93-.53-1.33-.53h-5.71c-.4,0-.8.33-.8.8v34.83c0,.4.4.8.8.8h5.71Z"/>
      <path class="cls-2" d="M747.31,26.21c.13.4.26.4.26-.07V.8c0-.4.4-.8.8-.8h5.44c.46,0,.8.4.8.8v48.96c0,.46-.33.8-.8.8h-4.38c-.46,0-.93-.33-1.06-.73l-10.22-28.46c-.2-.4-.27-.33-.27.07v28.33c0,.46-.4.8-.8.8h-5.44c-.46,0-.8-.33-.8-.8V.86c0-.46.33-.8.8-.8h5.44c.46,0,.93.33,1.06.73l9.16,25.41Z"/>
      <path class="cls-2" d="M781.54,6.37c0,.46-.4.8-.8.8h-11.68c-.46,0-.8.33-.8.8v9.42c0,.46.33.8.8.8h8.82c.4,0,.8.4.8.8v5.44c0,.46-.4.8-.8.8h-8.82c-.46,0-.8.4-.8.8v16.72c0,.46.33.8.8.8h11.68c.4,0,.8.33.8.8v5.44c0,.46-.4.8-.8.8h-18.71c-.46,0-.8-.33-.8-.8V.93c0-.46.33-.8.8-.8h18.71c.4,0,.8.33.8.8v5.44Z"/>
      <path class="cls-2" d="M816.7,30.52c.07.4.2.4.27,0l5.31-29.72c.07-.4.46-.73.93-.73h5.51c.46,0,.73.33.66.73l-8.69,48.96c-.07.46-.46.8-.93.8h-6.1c-.46,0-.86-.33-.93-.8l-4.45-27.53c-.07-.46-.2-.46-.27,0l-4.38,27.53c-.07.46-.53.8-.93.8h-6.1c-.46,0-.86-.33-.93-.8l-8.82-48.96c-.07-.4.2-.73.66-.73h5.57c.4,0,.86.33.93.73l5.31,29.72c.07.4.2.4.27,0l4.78-29.72c.07-.4.13-.73.2-.73h7.1c.07,0,.2.33.27.73l4.78,29.72Z"/>
      <path class="cls-2" d="M858.09.66c.27-.33.93-.6,1.33-.6h8.96c.4,0,1,.27,1.33.6l5.51,5.51c.33.33.6.93.6,1.33v6.9c0,.46-.4.8-.8.8h-5.44c-.46,0-.79-.33-.79-.8v-3.98c0-.4-.27-1.06-.53-1.33l-1.46-1.39c-.27-.33-.93-.6-1.33-.6h-3.12c-.46,0-1.06.27-1.33.6l-1.46,1.39c-.27.27-.53.93-.53,1.33v29.79c0,.46.27,1.06.53,1.33l1.46,1.46c.27.27.86.53,1.33.53h3.12c.4,0,1.06-.27,1.33-.53l1.46-1.46c.27-.27.53-.86.53-1.33v-12.08c0-.46-.33-.8-.8-.8h-3.32c-.46,0-.8-.4-.8-.8v-5.44c0-.46.33-.8.8-.8h10.35c.4,0,.8.33.8.8v22.03c0,.4-.27,1.06-.6,1.33l-5.51,5.57c-.33.27-.93.53-1.33.53h-8.96c-.4,0-1.06-.27-1.33-.53l-5.57-5.57c-.26-.27-.53-.93-.53-1.33V7.5c0-.4.27-1,.53-1.33l5.57-5.51Z"/>
      <path class="cls-2" d="M898.62,41.6c.33-.33.53-.93.53-1.39V.86c0-.46.4-.8.79-.8h5.44c.46,0,.8.33.8.8v42.26c0,.46-.27,1.06-.53,1.39l-5.51,5.51c-.33.27-.93.53-1.39.53h-8.89c-.46,0-1.06-.27-1.39-.53l-5.51-5.51c-.26-.33-.53-.93-.53-1.39V.86c0-.46.33-.8.79-.8h5.44c.4,0,.79.33.79.8v39.34c0,.46.27,1.06.53,1.39l1.39,1.39c.33.27.93.53,1.39.53h3.05c.46,0,1.06-.27,1.39-.53l1.39-1.39Z"/>
      <path class="cls-2" d="M926.22,15.06c.13.46.4.46.6,0l5.77-14.26c.13-.4.66-.73,1.06-.73h6.04c.4,0,.66.33.46.73l-9.82,24.35c-.13.4-.27,1.13-.27,1.53v23.09c0,.46-.4.8-.8.8h-5.44c-.46,0-.8-.33-.8-.8v-22.96c0-.46-.13-1.13-.33-1.53l-9.82-24.48c-.2-.4.07-.73.46-.73h6.04c.4,0,.93.33,1.06.73l5.77,14.26Z"/>
      <path class="cls-2" d="M952.29.66c.33-.33.93-.6,1.33-.6h8.96c.46,0,1.06.27,1.39.6l5.51,5.51c.27.33.53.93.53,1.33v6.9c0,.46-.33.8-.8.8h-5.44c-.4,0-.79-.33-.79-.8v-3.98c0-.4-.2-1.06-.53-1.33l-1.39-1.46c-.33-.27-.93-.53-1.39-.53h-3.12c-.4,0-1,.27-1.33.53l-1.39,1.46c-.33.27-.6.93-.6,1.33v7.03c0,.4.27,1.06.53,1.33l1.46,1.39c.27.33.86.6,1.33.6h6.04c.4,0,1.06.27,1.33.53l5.57,5.51c.27.33.53.93.53,1.39v14.93c0,.4-.27,1.06-.53,1.33l-5.51,5.57c-.33.27-.93.53-1.39.53h-8.96c-.4,0-.99-.27-1.33-.53l-5.51-5.57c-.33-.27-.6-.93-.6-1.33v-8.49c0-.46.4-.8.79-.8h5.44c.46,0,.79.33.79.8v5.57c0,.46.27,1.06.6,1.39l1.39,1.39c.33.27.93.53,1.33.53h3.12c.46,0,1.06-.27,1.39-.53l1.39-1.39c.33-.33.53-.93.53-1.39v-9.09c0-.46-.2-1.06-.53-1.39l-1.46-1.39c-.27-.33-.86-.53-1.33-.53h-6.04c-.4,0-1.06-.27-1.33-.6l-5.57-5.51c-.26-.33-.53-.93-.53-1.39V7.5c0-.4.27-1,.6-1.33l5.51-5.51Z"/>
    </g>
  </g>
</svg>