<?xml version="1.0" encoding="utf-8"?>
<!-- Generator: Adobe Illustrator 22.0.0, SVG Export Plug-In . SVG Version: 6.00 Build 0)  -->
<svg version="1.1" id="Layer_1" xmlns="http://www.w3.org/2000/svg" xmlns:xlink="http://www.w3.org/1999/xlink" x="0px" y="0px"
	 viewBox="0 0 146.5 17.8" style="enable-background:new 0 0 146.5 17.8;" xml:space="preserve">
<g>
	<path d="M0,0.3C0,0.1,0.1,0,0.3,0h5.5c0.1,0,0.4,0.1,0.5,0.2l1.9,1.9c0.1,0.1,0.2,0.3,0.2,0.5V7c0,0.2-0.1,0.4-0.2,0.5L7.5,8.2
		c-0.1,0.1-0.1,0.3,0,0.4l0.7,0.7c0.1,0.1,0.2,0.3,0.2,0.5v5.4c0,0.1-0.1,0.4-0.2,0.5l-1.9,1.9c-0.1,0.1-0.3,0.2-0.5,0.2h-3
		c-0.2,0-0.3,0-0.3,0s-0.1,0-0.3,0H0.3c-0.2,0-0.3-0.1-0.3-0.3V0.3z M2.8,2.5c-0.2,0-0.3,0.1-0.3,0.3v4.1c0,0.2,0.1,0.3,0.3,0.3h2
		c0.1,0,0.4-0.1,0.5-0.2l0.5-0.5C5.8,6.4,5.9,6.2,5.9,6V3.7c0-0.1-0.1-0.4-0.2-0.5L5.2,2.7C5.1,2.6,4.9,2.5,4.8,2.5H2.8z M5.8,14.6
		c0.1-0.1,0.2-0.3,0.2-0.5v-3.3c0-0.2-0.1-0.4-0.2-0.5L5.3,9.9C5.2,9.8,5,9.7,4.8,9.7H2.8c-0.2,0-0.3,0.1-0.3,0.3v5.1
		c0,0.2,0.1,0.3,0.3,0.3h2c0.1,0,0.4-0.1,0.5-0.2L5.8,14.6z"/>
	<path d="M19.2,8.5c0,0.2-0.1,0.4-0.2,0.5l-0.7,0.7c-0.1,0.1-0.2,0.3-0.1,0.5l1.3,7.4c0,0.2-0.1,0.3-0.2,0.3h-2
		c-0.2,0-0.3-0.1-0.3-0.3l-1.1-6.2c0-0.1-0.2-0.3-0.3-0.3h-1.9c-0.1,0-0.3,0.1-0.3,0.3v6.2c0,0.1-0.1,0.3-0.3,0.3h-1.9
		c-0.2,0-0.3-0.1-0.3-0.3V0.3C10.8,0.1,10.9,0,11,0h5.5c0.2,0,0.4,0.1,0.5,0.2L19,2.2c0.1,0.1,0.2,0.3,0.2,0.5L19.2,8.5L19.2,8.5z
		 M16.5,8c0.1-0.1,0.2-0.3,0.2-0.5V3.7c0-0.1-0.1-0.4-0.2-0.5L16,2.7c-0.1-0.1-0.3-0.2-0.5-0.2h-2c-0.1,0-0.3,0.1-0.3,0.3v5.6
		c0,0.2,0.1,0.3,0.3,0.3h2c0.1,0,0.3-0.1,0.5-0.2L16.5,8z"/>
	<path d="M25.8,0.3C25.9,0.1,26,0,26.2,0h1.9c0.1,0,0.3,0.1,0.3,0.3l4.2,17.3c0,0.2,0,0.3-0.2,0.3h-2c-0.2,0-0.3-0.1-0.4-0.3
		l-0.6-2.5c0-0.1-0.2-0.3-0.4-0.3h-3.8c-0.2,0-0.3,0.1-0.4,0.3l-0.6,2.5c0,0.2-0.2,0.3-0.4,0.3h-2c-0.2,0-0.3-0.1-0.2-0.3L25.8,0.3z
		 M25.6,12c0,0.2,0.1,0.3,0.2,0.3h2.6c0.2,0,0.3-0.1,0.2-0.3L27.2,6c0-0.2-0.1-0.2-0.1,0L25.6,12z"/>
	<path d="M40.4,9.2C40.4,9.4,40.4,9.4,40.4,9.2l0.1-9c0-0.1,0.1-0.3,0.3-0.3h1.9c0.2,0,0.3,0.1,0.3,0.3v17.3c0,0.2-0.1,0.3-0.3,0.3
		h-1.5c-0.2,0-0.3-0.1-0.4-0.3l-3.6-10c-0.1-0.1-0.1-0.1-0.1,0v10c0,0.2-0.1,0.3-0.3,0.3h-1.9c-0.2,0-0.3-0.1-0.3-0.3V0.3
		c0-0.2,0.1-0.3,0.3-0.3h1.9c0.2,0,0.3,0.1,0.4,0.3L40.4,9.2z"/>
	<path d="M45.5,17.8c-0.2,0-0.3-0.1-0.3-0.3V0.3c0-0.2,0.1-0.3,0.3-0.3h5.5c0.1,0,0.4,0.1,0.5,0.2l1.9,1.9c0.1,0.1,0.2,0.3,0.2,0.5
		v12.6c0,0.1-0.1,0.4-0.2,0.5l-1.9,1.9c-0.1,0.1-0.3,0.2-0.5,0.2L45.5,17.8L45.5,17.8z M50,15.3c0.1,0,0.4-0.1,0.5-0.2l0.5-0.5
		c0.1-0.1,0.2-0.3,0.2-0.5V3.7c0-0.2-0.1-0.4-0.2-0.5l-0.5-0.5c-0.1-0.1-0.3-0.2-0.5-0.2h-2c-0.1,0-0.3,0.1-0.3,0.3v12.3
		c0,0.1,0.1,0.3,0.3,0.3L50,15.3L50,15.3z"/>
	<path d="M67.7,9.2C67.8,9.4,67.8,9.4,67.7,9.2l0.1-9C67.8,0.1,68,0,68.1,0H70c0.2,0,0.3,0.1,0.3,0.3v17.3c0,0.2-0.1,0.3-0.3,0.3
		h-1.5c-0.2,0-0.3-0.1-0.4-0.3l-3.6-10c-0.1-0.1-0.1-0.1-0.1,0v10c0,0.2-0.1,0.3-0.3,0.3h-1.9c-0.2,0-0.3-0.1-0.3-0.3V0.3
		C61.9,0.1,62,0,62.2,0h1.9c0.2,0,0.3,0.1,0.4,0.3L67.7,9.2z"/>
	<path d="M79.8,2.2c0,0.2-0.1,0.3-0.3,0.3h-4.1c-0.2,0-0.3,0.1-0.3,0.3v3.3c0,0.2,0.1,0.3,0.3,0.3h3.1c0.1,0,0.3,0.1,0.3,0.3v1.9
		c0,0.2-0.1,0.3-0.3,0.3h-3.1c-0.2,0-0.3,0.1-0.3,0.3v5.9c0,0.2,0.1,0.3,0.3,0.3h4.1c0.1,0,0.3,0.1,0.3,0.3v1.9
		c0,0.2-0.1,0.3-0.3,0.3h-6.6c-0.2,0-0.3-0.1-0.3-0.3V0.3c0-0.2,0.1-0.3,0.3-0.3h6.6c0.1,0,0.3,0.1,0.3,0.3V2.2z"/>
	<path d="M92.2,10.8C92.2,10.9,92.3,10.9,92.2,10.8l2-10.5c0-0.1,0.2-0.3,0.3-0.3h1.9c0.2,0,0.3,0.1,0.2,0.3l-3.1,17.3
		c0,0.2-0.2,0.3-0.3,0.3h-2.2c-0.2,0-0.3-0.1-0.3-0.3l-1.6-9.7c0-0.2-0.1-0.2-0.1,0l-1.5,9.7c0,0.2-0.2,0.3-0.3,0.3h-2.2
		c-0.2,0-0.3-0.1-0.3-0.3L81.7,0.3c0-0.1,0.1-0.3,0.2-0.3h2c0.1,0,0.3,0.1,0.3,0.3l1.9,10.5c0,0.1,0.1,0.1,0.1,0l1.7-10.5
		c0-0.1,0.1-0.3,0.1-0.3c0,0,0.2,0,0.3,0h1.9c0.1,0,0.3,0,0.3,0c0,0,0.1,0.1,0.1,0.3L92.2,10.8z"/>
	<path d="M106.8,0.2c0.1-0.1,0.3-0.2,0.5-0.2h3.2c0.1,0,0.4,0.1,0.5,0.2l1.9,1.9c0.1,0.1,0.2,0.3,0.2,0.5v2.4c0,0.2-0.1,0.3-0.3,0.3
		h-1.9c-0.2,0-0.3-0.1-0.3-0.3V3.7c0-0.1-0.1-0.4-0.2-0.5l-0.5-0.5c-0.1-0.1-0.3-0.2-0.5-0.2h-1.1c-0.2,0-0.4,0.1-0.5,0.2l-0.5,0.5
		c-0.1,0.1-0.2,0.3-0.2,0.5v10.5c0,0.2,0.1,0.4,0.2,0.5l0.5,0.5c0.1,0.1,0.3,0.2,0.5,0.2h1.1c0.1,0,0.4-0.1,0.5-0.2l0.5-0.5
		c0.1-0.1,0.2-0.3,0.2-0.5V9.9c0-0.2-0.1-0.3-0.3-0.3h-1.2c-0.2,0-0.3-0.1-0.3-0.3V7.4c0-0.2,0.1-0.3,0.3-0.3h3.6
		c0.1,0,0.3,0.1,0.3,0.3v7.8c0,0.1-0.1,0.4-0.2,0.5l-1.9,2c-0.1,0.1-0.3,0.2-0.5,0.2h-3.2c-0.1,0-0.4-0.1-0.5-0.2l-2-2
		c-0.1-0.1-0.2-0.3-0.2-0.5V2.6c0-0.1,0.1-0.3,0.2-0.5L106.8,0.2z"/>
	<path d="M121.1,14.7c0.1-0.1,0.2-0.3,0.2-0.5V0.3c0-0.2,0.1-0.3,0.3-0.3h1.9c0.2,0,0.3,0.1,0.3,0.3v14.9c0,0.2-0.1,0.4-0.2,0.5
		l-1.9,1.9c-0.1,0.1-0.3,0.2-0.5,0.2H118c-0.2,0-0.4-0.1-0.5-0.2l-1.9-1.9c-0.1-0.1-0.2-0.3-0.2-0.5V0.3c0-0.2,0.1-0.3,0.3-0.3h1.9
		c0.1,0,0.3,0.1,0.3,0.3v13.9c0,0.2,0.1,0.4,0.2,0.5l0.5,0.5c0.1,0.1,0.3,0.2,0.5,0.2h1.1c0.2,0,0.4-0.1,0.5-0.2L121.1,14.7z"/>
	<path d="M130.8,5.3c0,0.2,0.1,0.2,0.2,0l2-5c0-0.1,0.2-0.3,0.4-0.3h2.1c0.1,0,0.2,0.1,0.2,0.3l-3.5,8.6c-0.1,0.1-0.1,0.4-0.1,0.5
		v8.1c0,0.2-0.1,0.3-0.3,0.3H130c-0.2,0-0.3-0.1-0.3-0.3V9.5c0-0.2,0-0.4-0.1-0.5l-3.5-8.6c-0.1-0.1,0-0.3,0.2-0.3h2.1
		c0.1,0,0.3,0.1,0.4,0.3L130.8,5.3z"/>
	<path d="M140.2,0.2c0.1-0.1,0.3-0.2,0.5-0.2h3.2c0.2,0,0.4,0.1,0.5,0.2l1.9,1.9c0.1,0.1,0.2,0.3,0.2,0.5v2.4c0,0.2-0.1,0.3-0.3,0.3
		h-1.9c-0.1,0-0.3-0.1-0.3-0.3V3.7c0-0.1-0.1-0.4-0.2-0.5l-0.5-0.5c-0.1-0.1-0.3-0.2-0.5-0.2h-1.1c-0.1,0-0.4,0.1-0.5,0.2l-0.5,0.5
		c-0.1,0.1-0.2,0.3-0.2,0.5v2.5c0,0.1,0.1,0.4,0.2,0.5l0.5,0.5c0.1,0.1,0.3,0.2,0.5,0.2h2.1c0.1,0,0.4,0.1,0.5,0.2l2,1.9
		c0.1,0.1,0.2,0.3,0.2,0.5v5.3c0,0.1-0.1,0.4-0.2,0.5l-1.9,2c-0.1,0.1-0.3,0.2-0.5,0.2h-3.2c-0.1,0-0.4-0.1-0.5-0.2l-1.9-2
		c-0.1-0.1-0.2-0.3-0.2-0.5v-3c0-0.2,0.1-0.3,0.3-0.3h1.9c0.2,0,0.3,0.1,0.3,0.3v2c0,0.2,0.1,0.4,0.2,0.5l0.5,0.5
		c0.1,0.1,0.3,0.2,0.5,0.2h1.1c0.2,0,0.4-0.1,0.5-0.2l0.5-0.5c0.1-0.1,0.2-0.3,0.2-0.5V11c0-0.2-0.1-0.4-0.2-0.5l-0.5-0.5
		c-0.1-0.1-0.3-0.2-0.5-0.2h-2.1c-0.1,0-0.4-0.1-0.5-0.2l-2-1.9c-0.1-0.1-0.2-0.3-0.2-0.5V2.6c0-0.1,0.1-0.3,0.2-0.5L140.2,0.2z"/>
</g>
</svg>
