<?xml version="1.0" encoding="utf-8"?>
<!-- Generator: Adobe Illustrator 16.0.0, SVG Export Plug-In . SVG Version: 6.00 Build 0)  -->
<!DOCTYPE svg PUBLIC "-//W3C//DTD SVG 1.1//EN" "http://www.w3.org/Graphics/SVG/1.1/DTD/svg11.dtd">
<svg version="1.1" id="Layer_1" xmlns="http://www.w3.org/2000/svg" xmlns:xlink="http://www.w3.org/1999/xlink" x="0px" y="0px"
	 width="146.484px" height="17.826px" viewBox="0 0 146.484 17.826" enable-background="new 0 0 146.484 17.826"
	 xml:space="preserve">
<g>
	<path fill="#FFFFFF" d="M0,0.281C0,0.117,0.117,0,0.281,0h5.52c0.145,0,0.354,0.093,0.471,0.211l1.94,1.941
		C8.329,2.269,8.421,2.48,8.421,2.621v4.42c0,0.164-0.093,0.375-0.209,0.468l-0.68,0.703C7.416,8.329,7.416,8.516,7.509,8.609
		l0.728,0.725c0.094,0.118,0.187,0.328,0.187,0.47v5.401c0,0.142-0.093,0.353-0.209,0.469l-1.943,1.94
		c-0.117,0.117-0.327,0.212-0.471,0.212H2.762c-0.164,0-0.282,0-0.282,0s-0.143,0-0.281,0H0.281C0.117,17.826,0,17.709,0,17.545
		V0.281z M2.761,2.48c-0.164,0-0.282,0.117-0.282,0.28V6.9c0,0.164,0.118,0.282,0.282,0.282h2.011c0.14,0,0.375-0.071,0.468-0.188
		l0.515-0.491C5.85,6.386,5.943,6.175,5.943,6.011V3.65c0-0.14-0.094-0.375-0.188-0.468L5.24,2.667
		C5.146,2.573,4.912,2.48,4.771,2.48H2.761z M5.755,14.646c0.096-0.094,0.188-0.328,0.188-0.469V10.83
		c0-0.163-0.094-0.373-0.188-0.49L5.287,9.873C5.17,9.755,4.959,9.662,4.819,9.662H2.761c-0.164,0-0.282,0.142-0.282,0.28v5.121
		c0,0.164,0.118,0.279,0.282,0.279h2.011c0.14,0,0.375-0.093,0.468-0.188L5.755,14.646z"/>
	<path fill="#FFFFFF" d="M19.181,8.492c0,0.164-0.096,0.373-0.209,0.492l-0.728,0.725c-0.118,0.117-0.188,0.328-0.14,0.47
		l1.286,7.366c0.021,0.164-0.096,0.281-0.233,0.281h-1.965c-0.164,0-0.304-0.117-0.328-0.281l-1.076-6.151
		c-0.021-0.141-0.164-0.258-0.328-0.258h-1.938c-0.144,0-0.281,0.117-0.257,0.258v6.151c0,0.142-0.143,0.281-0.28,0.281h-1.919
		c-0.164,0-0.281-0.117-0.304-0.281V0.304c0-0.164,0.114-0.281,0.278-0.281h5.498c0.164,0,0.374,0.093,0.492,0.21l1.941,1.943
		c0.114,0.117,0.209,0.326,0.209,0.466V8.492L19.181,8.492z M16.491,7.953c0.118-0.116,0.211-0.326,0.211-0.49v-3.79
		c0-0.14-0.093-0.375-0.211-0.468l-0.49-0.491c-0.118-0.117-0.327-0.211-0.467-0.211h-2.013c-0.144,0-0.281,0.14-0.281,0.282v5.568
		c0,0.164,0.14,0.28,0.281,0.28h2.013c0.14,0,0.349-0.071,0.467-0.188L16.491,7.953z"/>
	<path fill="#FFFFFF" d="M25.848,0.281c0.048-0.141,0.188-0.257,0.352-0.257h1.896C28.234,0,28.398,0.14,28.422,0.281l4.21,17.264
		c0.05,0.164-0.045,0.281-0.21,0.281h-2.035c-0.162,0-0.305-0.117-0.352-0.281l-0.585-2.457c-0.022-0.14-0.187-0.278-0.35-0.256
		h-3.836c-0.164,0-0.328,0.116-0.354,0.256l-0.584,2.457c-0.021,0.164-0.188,0.281-0.352,0.281h-2.014
		c-0.164,0-0.258-0.117-0.231-0.281L25.848,0.281z M25.639,12.024c-0.023,0.164,0.066,0.277,0.209,0.277h2.645
		c0.164,0,0.256-0.14,0.209-0.277l-1.473-6.062c-0.047-0.164-0.096-0.164-0.143,0L25.639,12.024z"/>
	<path fill="#FFFFFF" d="M40.353,9.24c0.046,0.141,0.094,0.141,0.094-0.023V0.281C40.446,0.14,40.585,0,40.726,0h1.918
		c0.164,0,0.279,0.14,0.279,0.281v17.264c0,0.164-0.116,0.281-0.279,0.281h-1.543c-0.164,0-0.328-0.117-0.375-0.259L37.124,7.532
		c-0.068-0.14-0.093-0.116-0.093,0.024v9.989c0,0.164-0.141,0.281-0.282,0.281h-1.918c-0.164,0-0.28-0.117-0.28-0.281V0.304
		c0-0.164,0.117-0.281,0.28-0.281h1.918c0.163,0,0.328,0.117,0.375,0.257L40.353,9.24z"/>
	<path fill="#FFFFFF" d="M45.545,17.826c-0.164,0-0.278-0.117-0.278-0.281V0.304c0-0.164,0.114-0.281,0.278-0.281h5.521
		c0.141,0,0.375,0.069,0.468,0.188l1.941,1.941c0.115,0.117,0.211,0.328,0.211,0.49v12.562c0,0.141-0.096,0.375-0.211,0.469
		l-1.941,1.941c-0.093,0.117-0.328,0.211-0.468,0.211L45.545,17.826L45.545,17.826z M50.036,15.347c0.14,0,0.375-0.094,0.468-0.211
		l0.492-0.49c0.117-0.094,0.21-0.328,0.21-0.469V3.673c0-0.164-0.093-0.375-0.21-0.492L50.504,2.69
		c-0.093-0.093-0.328-0.188-0.468-0.188h-2.011c-0.145,0-0.282,0.118-0.282,0.282v12.279c0,0.142,0.14,0.279,0.282,0.279
		L50.036,15.347L50.036,15.347z"/>
	<path fill="#FFFFFF" d="M67.722,9.24c0.046,0.141,0.093,0.141,0.093-0.023V0.281C67.815,0.14,67.955,0,68.096,0h1.919
		c0.164,0,0.278,0.14,0.278,0.281v17.264c0,0.164-0.114,0.281-0.278,0.281h-1.544c-0.164,0-0.328-0.117-0.375-0.259L64.493,7.532
		C64.422,7.393,64.4,7.416,64.4,7.556v9.989c0,0.164-0.144,0.281-0.282,0.281H62.2c-0.164,0-0.28-0.117-0.28-0.281V0.304
		c0-0.164,0.117-0.281,0.28-0.281h1.918c0.164,0,0.328,0.117,0.375,0.257L67.722,9.24z"/>
	<path fill="#FFFFFF" d="M79.791,2.246c0,0.164-0.141,0.281-0.279,0.281h-4.114c-0.163,0-0.281,0.116-0.281,0.28v3.322
		c0,0.164,0.118,0.282,0.281,0.282h3.108c0.144,0,0.28,0.14,0.28,0.28v1.918c0,0.164-0.14,0.28-0.28,0.28h-3.108
		c-0.163,0-0.281,0.14-0.281,0.281v5.896c0,0.164,0.118,0.281,0.281,0.281h4.114c0.142,0,0.279,0.118,0.279,0.28v1.918
		c0,0.164-0.141,0.281-0.279,0.281h-6.597c-0.165,0-0.281-0.117-0.281-0.281V0.328c0-0.165,0.117-0.281,0.281-0.281h6.597
		c0.142,0,0.279,0.116,0.279,0.281V2.246z"/>
	<path fill="#FFFFFF" d="M92.19,10.763c0.021,0.139,0.067,0.139,0.095,0l1.87-10.479c0.024-0.141,0.163-0.257,0.327-0.257h1.938
		c0.165,0,0.261,0.117,0.235,0.257l-3.064,17.264c-0.021,0.164-0.162,0.281-0.324,0.281h-2.154c-0.163,0-0.303-0.117-0.327-0.281
		l-1.566-9.708c-0.021-0.164-0.068-0.164-0.095,0l-1.542,9.708c-0.021,0.164-0.188,0.281-0.328,0.281h-2.15
		c-0.163,0-0.307-0.117-0.328-0.281l-3.11-17.264c-0.021-0.141,0.069-0.257,0.232-0.257h1.965c0.141,0,0.306,0.117,0.328,0.257
		l1.873,10.479c0.021,0.139,0.066,0.139,0.093,0L87.84,0.282c0.024-0.141,0.051-0.257,0.07-0.257c0.023,0,0.163,0,0.327,0h1.872
		c0.141,0,0.281,0,0.304,0c0.024,0,0.069,0.117,0.093,0.257L92.19,10.763z"/>
	<path fill="#FFFFFF" d="M106.787,0.233c0.094-0.117,0.327-0.21,0.468-0.21h3.158c0.144,0,0.353,0.093,0.469,0.21l1.94,1.943
		c0.117,0.117,0.211,0.326,0.211,0.466v2.433c0,0.164-0.141,0.282-0.281,0.282h-1.918c-0.163,0-0.277-0.118-0.277-0.282V3.673
		c0-0.14-0.098-0.375-0.188-0.468l-0.516-0.491c-0.095-0.117-0.326-0.211-0.471-0.211h-1.098c-0.165,0-0.376,0.095-0.469,0.211
		L107.3,3.205c-0.094,0.093-0.188,0.328-0.188,0.468v10.502c0,0.164,0.094,0.377,0.188,0.469l0.518,0.518
		c0.093,0.094,0.304,0.188,0.469,0.188h1.098c0.145,0,0.377-0.094,0.471-0.188l0.516-0.518c0.093-0.092,0.188-0.305,0.188-0.469
		V9.918c0-0.163-0.117-0.28-0.28-0.28h-1.171c-0.165,0-0.281-0.14-0.281-0.28V7.439c0-0.164,0.116-0.281,0.281-0.281h3.646
		c0.144,0,0.281,0.117,0.281,0.281v7.766c0,0.142-0.094,0.375-0.211,0.469l-1.94,1.966c-0.116,0.094-0.325,0.188-0.469,0.188h-3.158
		c-0.141,0-0.374-0.095-0.468-0.188l-1.965-1.966c-0.095-0.094-0.188-0.327-0.188-0.469V2.643c0-0.14,0.095-0.35,0.188-0.466
		L106.787,0.233z"/>
	<path fill="#FFFFFF" d="M121.081,14.668c0.115-0.116,0.188-0.328,0.188-0.491V0.304c0-0.164,0.14-0.281,0.277-0.281h1.917
		c0.164,0,0.28,0.117,0.28,0.281v14.901c0,0.164-0.093,0.375-0.186,0.491l-1.943,1.939c-0.115,0.096-0.325,0.188-0.489,0.188h-3.136
		c-0.165,0-0.374-0.096-0.491-0.188l-1.94-1.939c-0.095-0.116-0.188-0.327-0.188-0.491V0.304c0-0.164,0.118-0.281,0.28-0.281h1.919
		c0.141,0,0.28,0.117,0.28,0.281v13.873c0,0.163,0.096,0.375,0.188,0.491l0.491,0.491c0.116,0.094,0.328,0.188,0.491,0.188h1.076
		c0.159,0,0.374-0.094,0.488-0.188L121.081,14.668z"/>
	<path fill="#FFFFFF" d="M130.811,5.311c0.048,0.164,0.141,0.164,0.212,0l2.034-5.03c0.047-0.141,0.231-0.257,0.375-0.257h2.128
		c0.141,0,0.231,0.117,0.165,0.257l-3.462,8.584c-0.051,0.141-0.098,0.396-0.098,0.539v8.141c0,0.164-0.14,0.281-0.277,0.281h-1.922
		c-0.16,0-0.277-0.117-0.277-0.281V9.452c0-0.164-0.046-0.399-0.117-0.539l-3.462-8.632c-0.07-0.141,0.021-0.257,0.163-0.257h2.129
		c0.141,0,0.328,0.117,0.375,0.257L130.811,5.311z"/>
	<path fill="#FFFFFF" d="M140.237,0.233c0.118-0.117,0.328-0.21,0.469-0.21h3.158c0.163,0,0.375,0.093,0.491,0.21l1.938,1.943
		c0.096,0.117,0.188,0.326,0.188,0.466v2.433c0,0.164-0.117,0.282-0.28,0.282h-1.92c-0.139,0-0.28-0.118-0.28-0.282V3.673
		c0-0.14-0.066-0.375-0.186-0.468l-0.492-0.515c-0.116-0.093-0.328-0.188-0.491-0.188h-1.1c-0.144,0-0.354,0.095-0.468,0.188
		l-0.49,0.515c-0.119,0.093-0.212,0.328-0.212,0.468v2.479c0,0.14,0.093,0.375,0.188,0.468l0.518,0.492
		c0.094,0.116,0.303,0.211,0.468,0.211h2.129c0.14,0,0.375,0.093,0.468,0.186l1.965,1.943c0.096,0.115,0.188,0.326,0.188,0.49v5.263
		c0,0.142-0.095,0.375-0.188,0.469l-1.938,1.966c-0.116,0.094-0.328,0.188-0.491,0.188h-3.158c-0.141,0-0.351-0.095-0.469-0.188
		l-1.941-1.966c-0.113-0.094-0.211-0.327-0.211-0.469v-2.994c0-0.164,0.146-0.278,0.282-0.278h1.918c0.164,0,0.28,0.114,0.28,0.278
		v1.966c0,0.163,0.093,0.375,0.212,0.491l0.49,0.491c0.115,0.094,0.327,0.188,0.468,0.188h1.1c0.163,0,0.375-0.094,0.491-0.188
		l0.492-0.491c0.116-0.116,0.186-0.328,0.186-0.491v-3.205c0-0.164-0.066-0.373-0.186-0.49l-0.515-0.489
		c-0.097-0.116-0.309-0.188-0.472-0.188h-2.129c-0.141,0-0.374-0.094-0.469-0.211l-1.964-1.942
		c-0.094-0.117-0.188-0.326-0.188-0.491V2.643c0-0.14,0.098-0.35,0.211-0.466L140.237,0.233z"/>
</g>
</svg>
