<?xml version="1.0" encoding="UTF-8"?>
<svg id="Laag_2" data-name="Laag 2" xmlns="http://www.w3.org/2000/svg" viewBox="0 0 207.74 96.18">
  <defs>
    <style>
      .cls-1 {
        fill: #777;
        stroke-width: 0px;
      }
    </style>
  </defs>
  <g id="breitling">
    <g>
      <path id="path4144" class="cls-1" d="M197.04,46.08c-7.41,0-12.15,4.29-12.15,11.67s5.19,11.04,12.15,11.04c7.55,0,10.7-2.91,10.7-3.12v-9.76h-10.35v3.57h6.47v4.33c-2.15,1.56-6.82,1.28-6.82,1.28-4.29,0-8.28-1.84-8.28-7.34,0-4.88,3.57-7.93,8.28-7.93,3.43,0,5.85.93,7.2,1.73l1.59-3.43c-1.77-1-4.78-2.04-8.79-2.04ZM0,46.47v22.06h13.92c5.99,0,7.34-3.29,7.34-6.75,0-1.73-.93-3.95-3.15-4.88,1.49-1.07,1.94-2.49,1.94-4.26,0-4.43-2.39-6.16-7.55-6.16H0ZM174.23,46.5v15.03l-13.09-14.61-.35-.38h-3.05v22.06h3.88v-15.3l13.71,15.27h2.8v-22.06h-3.91ZM55.99,46.5v22.02h18.59v-3.7h-14.72v-5.51h10.66v-3.57h-10.66v-5.54h14.68v-3.7h-18.56ZM92.79,46.5v3.7h8.21v18.32h3.91v-18.32h8.21v-3.7h-20.32ZM81.71,46.5v22.02h3.88v-22.02h-3.88ZM28.43,46.5v22.06h3.88v-9.07h5.78l5.68,9.04h4.57l-5.89-9.07c3.32-.28,6.09-2.25,6.09-6.54,0-5.3-4.12-6.44-7.93-6.44l-12.19.03h0ZM120.59,46.5v22.06h17.17v-3.7h-13.3v-18.32h-3.88v-.03ZM144.07,46.5v22.06h3.88v-22.06h-3.88ZM3.81,49.96h8.52c2.35,0,3.84.93,3.84,2.77,0,1.07-.31,2.98-2.98,2.98H3.81v-5.75h0ZM32.3,50.07h8.34c1.49,0,4.02.38,4.02,3.19,0,2.35-2.29,2.67-4.02,2.67h-8.34v-5.85h0ZM3.81,59.17h9.59c2.08,0,3.88.45,3.88,2.94s-2.11,2.91-3.36,2.91H3.81s0-5.85,0-5.85ZM90.33,79.29c-2.67,0-4.71.69-5.85,1.94-.76.83-1.11,1.9-.97,3.08.07.69.35,1.7,1.32,2.56l.35.31-.38.28c-.28.21-.52.42-.69.62-.83.9-1.21,2.11-1.11,3.43.21,2.25,2.22,4.67,7.34,4.67h0c5.12,0,7.17-2.42,7.34-4.67.1-1.35-.28-2.53-1.11-3.43-.21-.21-.42-.42-.69-.62l-.38-.28.35-.31c.97-.9,1.25-1.9,1.32-2.6.14-1.18-.21-2.25-.97-3.08-1.14-1.25-3.19-1.9-5.85-1.9h0ZM107.33,79.29c-2.67,0-4.71.69-5.85,1.94-.76.83-1.11,1.9-.97,3.08.07.69.35,1.7,1.32,2.56l.35.31-.38.28c-.28.21-.52.42-.69.62-.83.9-1.21,2.11-1.11,3.43.21,2.25,2.22,4.67,7.34,4.67h0c5.12,0,7.17-2.42,7.34-4.67.1-1.35-.28-2.53-1.11-3.43-.17-.21-.42-.42-.69-.62l-.38-.28.35-.31c.97-.9,1.25-1.9,1.32-2.6.1-1.18-.21-2.25-.97-3.08-1.18-1.25-3.19-1.9-5.85-1.9h0ZM76.21,79.7v16.2h3.15v-16.2h-3.15ZM121.6,79.7l-4.64,10.11-.03,2.84h9.21v3.25h2.84v-3.25h1.84v-2.84h-1.84v-10.11h-7.37ZM90.33,82.09c1.8,0,3.15.38,3.74,1,.24.24.31.52.28.9-.1.87-1.38,1.77-4.02,1.77s-3.91-.9-4.02-1.77c-.03-.38.03-.66.28-.9.59-.62,1.94-1,3.74-1ZM107.33,82.09c1.8,0,3.15.38,3.74,1,.24.24.31.52.28.9-.1.87-1.38,1.77-4.02,1.77s-3.91-.9-4.02-1.77c-.03-.38.03-.66.28-.9.55-.62,1.94-1,3.74-1ZM123.4,82.58h2.74v7.27h-6.09l3.36-7.27ZM90.33,88.91c.73,0,3.22.07,4.15,1.11.31.31.42.73.35,1.28-.14,1.52-2.42,2.08-4.54,2.08s-4.4-.55-4.54-2.08c-.03-.55.07-.97.35-1.28.69-.73,2.22-1.11,4.22-1.11ZM107.33,88.91c.73,0,3.22.07,4.15,1.11.31.31.42.73.35,1.28-.14,1.52-2.42,2.08-4.54,2.08s-4.4-.55-4.54-2.08c-.03-.55.07-.97.35-1.28.66-.69,2.22-1.11,4.22-1.11Z"/>
      <path id="path4162" class="cls-1" d="M109.16,18.39c-1.14-.69-.03-1.77,1.04-1.77,1.73,0,3.25,1.49,3.25,1.49,0,0-2.94,1.11-4.29.28M93.2,33.31c-3.98,1.07-2.91-7.65,2.11-14.61,5.12-7.1,9.18-9.21,9.18-9.21-.87,10.35-7.06,22.68-11.29,23.82M117.92,5.19c-2.53-1.21-6.09-.59-9.35.59h0c.24-4.5-.45-5.78-.45-5.78l-3.7,1.04s.48,2.6.24,6.61h0c-9.66,5.57-16.17,14.92-17.97,21.22-1.97,6.86,3.5,9.18,8.1,5.82,11.32-8.31,13.64-27.25,13.64-27.25,3.43-1.04,6.13-.48,7.72.9,4.02,3.46-1.21,8.79-1.21,8.79,0,0-1.35-1.56-3.88-1.8-4.05-.38-6.13,4.5-.73,5.02.9.07,3.29-.24,4.19-.69.9,1.66.62,9.38-4.6,11.67-4.67,2.04-6.44-.83-6.44-.83-.14,0-2.53,3.12-2.39,3.43,0,0,2.49,3.7,7.93,2.11,4.29-1.25,6.37-4.99,7.44-7.69,1.84-4.47.52-8.41-.21-9.45,7.2-5.02,6.13-11.81,1.66-13.71"/>
    </g>
  </g>
</svg>