<?xml version="1.0" encoding="utf-8"?>
<!-- Generator: Adobe Illustrator 22.0.0, SVG Export Plug-In . SVG Version: 6.00 Build 0)  -->
<svg version="1.1" id="Laag_1" xmlns="http://www.w3.org/2000/svg" xmlns:xlink="http://www.w3.org/1999/xlink" x="0px" y="0px"
	 viewBox="0 0 420 325" style="enable-background:new 0 0 420 325;" xml:space="preserve">
<style type="text/css">
	.st0{fill:#D5D7CE;}
</style>
<g id="APP_DESIGN">
</g>
<g id="ECOMMERCE">
</g>
<g>
	<path class="st0" d="M51.6,134.8c-0.5,0-1.4,0.6-1.4,1.4c0,1,1,1.6,2.2,1.6c0.2,0,0.4,0,0.6,0l-1-2.7
		C51.9,134.9,51.8,134.8,51.6,134.8z"/>
	<path class="st0" d="M53.2,147.5c-1.7,0-3,0.9-3,2.1c0,1,0.8,1.7,2.2,1.7c1.5,0,3-0.9,3-2.2C55.4,148.2,54.5,147.5,53.2,147.5z"/>
	<path class="st0" d="M51.6,219.7c-0.5,0-1.4,0.6-1.4,1.4c0,1,1,1.6,2.2,1.6c0.2,0,0.4,0,0.6,0l-1-2.7
		C51.9,219.7,51.8,219.7,51.6,219.7z"/>
	<path class="st0" d="M50.1,205.9c0,1,0.8,1.7,2.2,1.7c1.5,0,3-0.9,3-2.2c0-0.9-0.9-1.6-2.2-1.6C51.5,203.8,50.1,204.7,50.1,205.9z"
		/>
	<path class="st0" d="M54,191.2l-0.5,0c-0.6,0.1-1,0.6-1,1.3c0,0.8,0.5,1.4,1.2,1.4c0.9,0,1.6-0.6,1.6-1.4
		C55.4,191.7,54.8,191.2,54,191.2z"/>
	<path class="st0" d="M193.5,0H0v325h193.5V0z M55,90.2c0.5,0,0.7,0.3,0.7,0.8c0,0.4-0.3,0.8-0.7,0.8c-0.5,0-0.7-0.3-0.7-0.8
		C54.3,90.6,54.6,90.2,55,90.2z M53.5,104.5h-2.6c-0.5,0-0.5,0.5-0.7,0.5h0c-0.1,0-0.2-0.1-0.2-0.2l-0.2-1c0-0.2,0-0.3,0.1-0.3h4.7
		c0.9,0,0.5-0.7,0.9-0.7c0.2,0,0.3,0.2,0.3,0.7c0,0.5-0.2,0.9-0.9,0.9l-0.1,0c0.6,0.3,1,1,1,1.8c0,1.3-1,2.2-2.7,2.2h-2.1
		c-0.5,0-0.5,0.4-0.7,0.4h0c-0.1,0-0.2-0.1-0.2-0.2l-0.2-1c0-0.2,0-0.3,0.1-0.3l3.2,0c1.4,0,2.2-0.5,2.2-1.4
		C55.3,105.1,54.6,104.5,53.5,104.5z M51.2,92.8c0.2,0,0.4,0.2,0.4,0.4c0,0.7-1.5,0.4-1.5,1.9c0,0.7,0.4,1.2,1,1.2
		c1.7,0,0.6-3.7,3-3.7c0.9,0,1.6,0.9,1.6,2.4c0,1.6-0.8,2.4-1.4,2.4c-0.3,0-0.4-0.2-0.4-0.5c0-0.7,1.5-0.4,1.5-2
		c0-0.8-0.4-1.4-1.1-1.4c-1.8,0-0.6,3.7-2.9,3.7c-0.9,0-1.6-0.9-1.6-2.3C49.7,93.7,50.5,92.8,51.2,92.8z M50.7,97.9
		c0.3,0,0.6,0.1,0.6,0.5c0,0.6-0.8,0.3-0.8,1.1c0,0.7,0.8,1,1.7,1h2.7c0.4,0,0.4-0.5,0.6-0.5h0c0.1,0,0.1,0.1,0.1,0.2v1.5
		c0,0.2,0,0.2-0.1,0.2h0c-0.2,0-0.2-0.4-0.6-0.4h-3.7c-0.5,0-0.5,0.5-0.7,0.5h0c-0.1,0-0.2-0.1-0.2-0.2l-0.4-0.9
		c-0.1-0.2,0-0.3,0.2-0.3h1c-0.8-0.3-1.2-0.8-1.2-1.6C49.7,98.3,50.2,97.9,50.7,97.9z M52.8,109.7c1.7,0,3,1.1,3,2.8
		c0,1.9-1.5,3.1-3.1,3.1c-1.7,0-2.9-1.3-2.9-2.9C49.7,110.9,51.1,109.7,52.8,109.7z M48.7,155.4c-0.2,0-0.2-0.1-0.2-0.2v-0.1
		c0-0.1,0.1-0.2,0.2-0.2l1.1,0v-1.7c0-0.1,0.1-0.2,0.2-0.2h0.1c0.1,0,0.2,0.1,0.2,0.2v1.7H54c0.7,0,1-0.3,1-0.8
		c0-0.5-0.3-0.8-0.7-0.9c-0.2-0.1-0.2-0.4,0-0.4c0.7,0,1.5,0.6,1.5,1.5c0,0.9-0.6,1.5-1.8,1.5h-3.6v0.8c0,0.1-0.1,0.2-0.2,0.2H50
		c-0.1,0-0.2-0.1-0.2-0.2v-0.4C49.9,155.8,49.4,155.5,48.7,155.4z M52.1,168.3h2.7c0.4,0,0.4-0.5,0.6-0.5h0c0.1,0,0.1,0.1,0.1,0.2
		v1.5c0,0.2,0,0.2-0.1,0.2h0c-0.2,0-0.2-0.4-0.6-0.4h-3.7c-0.5,0-0.5,0.5-0.7,0.5h0c-0.1,0-0.2-0.1-0.2-0.2l-0.4-0.9
		c-0.1-0.2,0-0.3,0.2-0.3h1c-0.8-0.3-1.2-0.8-1.2-1.6c0-0.7,0.4-1.1,0.9-1.1c0.3,0,0.6,0.1,0.6,0.5c0,0.6-0.8,0.3-0.8,1.1
		C50.4,167.9,51.2,168.3,52.1,168.3z M53.9,201.4h-3.6v0.8c0,0.1-0.1,0.2-0.2,0.2H50c-0.1,0-0.2-0.1-0.2-0.2v-0.4
		c0-0.6-0.5-0.9-1.1-0.9c-0.2,0-0.2-0.1-0.2-0.2v-0.1c0-0.1,0.1-0.2,0.2-0.2l1.1,0v-1.7c0-0.1,0.1-0.2,0.2-0.2h0.1
		c0.1,0,0.2,0.1,0.2,0.2v1.7H54c0.7,0,1-0.3,1-0.8c0-0.5-0.3-0.8-0.7-0.9c-0.2-0.1-0.2-0.4,0-0.4c0.7,0,1.5,0.6,1.5,1.5
		C55.8,200.7,55.2,201.4,53.9,201.4z M55.8,205.6c0,1.9-1.5,3.1-3.1,3.1c-1.7,0-2.9-1.3-2.9-2.9c0-1.8,1.4-3,3.1-3
		C54.5,202.8,55.8,203.9,55.8,205.6z M53.9,195c-1.2,0-1.8-0.9-1.8-2.2c0-0.6,0.2-1.2,0.5-1.5l-0.3,0c-1.4,0.1-2.2,0.5-2.2,1.5
		c0,1.2,1.4,1.1,1.4,1.7c0,0.3-0.2,0.5-0.4,0.5c-0.6,0-1.3-0.8-1.3-2.1c0-1.5,0.9-2.4,2.5-2.5l2.4-0.2c0.7-0.1,0.5-0.7,0.8-0.7
		c0.2,0,0.3,0.3,0.3,0.8c0,0.5-0.1,0.8-0.8,0.9c0.5,0.3,0.8,0.9,0.8,1.7C55.8,194.1,55.1,195,53.9,195z M51.2,185.2
		c1.7,0,0.6-3.7,3-3.7c0.9,0,1.6,0.9,1.6,2.4c0,1.6-0.8,2.4-1.4,2.4c-0.3,0-0.4-0.2-0.4-0.5c0-0.7,1.5-0.4,1.5-2
		c0-0.8-0.4-1.4-1.1-1.4c-1.8,0-0.6,3.7-2.9,3.7c-0.9,0-1.6-0.9-1.6-2.3c0-1.5,0.8-2.3,1.4-2.3c0.2,0,0.4,0.2,0.4,0.4
		c0,0.7-1.5,0.4-1.5,1.9C50.1,184.7,50.6,185.2,51.2,185.2z M53.9,180.2h-3.6v0.8c0,0.1-0.1,0.2-0.2,0.2H50c-0.1,0-0.2-0.1-0.2-0.2
		v-0.4c0-0.6-0.5-0.9-1.1-0.9c-0.2,0-0.2-0.1-0.2-0.2v-0.1c0-0.1,0.1-0.2,0.2-0.2l1.1,0v-1.7c0-0.1,0.1-0.2,0.2-0.2h0.1
		c0.1,0,0.2,0.1,0.2,0.2v1.7H54c0.7,0,1-0.3,1-0.8c0-0.5-0.3-0.8-0.7-0.9c-0.2-0.1-0.2-0.4,0-0.4c0.7,0,1.5,0.6,1.5,1.5
		C55.8,179.6,55.2,180.2,53.9,180.2z M52.7,176.6c-1.7,0-2.9-1.3-2.9-2.9c0-1.8,1.4-3,3.1-3c1.7,0,3,1.1,3,2.8
		C55.8,175.4,54.3,176.6,52.7,176.6z M52.7,152.4c-1.7,0-2.9-1.3-2.9-2.9c0-1.8,1.4-3,3.1-3c1.7,0,3,1.1,3,2.8
		C55.8,151.2,54.3,152.4,52.7,152.4z M53.9,142.4h-3.6v0.8c0,0.1-0.1,0.2-0.2,0.2H50c-0.1,0-0.2-0.1-0.2-0.2v-0.4
		c0-0.6-0.5-0.9-1.1-0.9c-0.2,0-0.2-0.1-0.2-0.2v-0.1c0-0.1,0.1-0.2,0.2-0.2l1.1,0v-1.7c0-0.1,0.1-0.2,0.2-0.2h0.1
		c0.1,0,0.2,0.1,0.2,0.2v1.7H54c0.7,0,1-0.3,1-0.8c0-0.5-0.3-0.8-0.7-0.9c-0.2-0.1-0.2-0.4,0-0.4c0.7,0,1.5,0.6,1.5,1.5
		C55.8,141.8,55.2,142.4,53.9,142.4z M52.7,138.8c-1.7,0-3-1.2-3-2.8c0-1.4,0.9-2.2,1.8-2.2c0.4,0,0.6,0.2,0.7,0.6l1.1,3.3
		c1-0.3,1.7-1,1.7-2c0-0.9-0.5-1.5-1-1.7c-0.2-0.1-0.1-0.4,0.1-0.3c0.7,0.1,1.7,0.9,1.7,2.4C55.8,137.6,54.6,138.8,52.7,138.8z
		 M47.1,120.6c0-0.2,0-0.2,0.1-0.2h0c0.2,0,0.3,0.6,0.7,0.4l3.9-2.3l-3.9-2.3c-0.4-0.3-0.4,0.4-0.7,0.4h0c-0.1,0-0.1-0.1-0.1-0.2
		v-1.2c0-0.2,0-0.2,0.1-0.2h0c0.2,0,0.2,0.4,0.7,0.6l4.2,2.6h2.6c0.4,0,0.4-0.5,0.7-0.5h0c0.1,0,0.1,0.1,0.1,0.2v1.5
		c0,0.2,0,0.2-0.1,0.2h0c-0.2,0-0.2-0.4-0.7-0.4h-2.5l-4.3,2.8c-0.4,0.3-0.4,0.7-0.7,0.7h0c-0.1,0-0.1-0.1-0.1-0.2V120.6z
		 M55.8,126.3c0,0.4-0.3,0.8-0.7,0.8c-0.5,0-0.7-0.3-0.7-0.8c0-0.4,0.3-0.8,0.7-0.8C55.5,125.5,55.8,125.9,55.8,126.3z M46.8,128.5
		h8c0.4,0,0.4-0.5,0.6-0.5h0c0.1,0,0.2,0.1,0.2,0.2v1.5c0,0.1-0.1,0.2-0.2,0.2h0c-0.2,0-0.2-0.4-0.6-0.4H48c-0.5,0-0.5,0.4-0.7,0.4
		h0c-0.1,0-0.1-0.1-0.2-0.2l-0.5-0.9C46.5,128.7,46.7,128.5,46.8,128.5z M46.8,131.4h8c0.4,0,0.4-0.5,0.6-0.5h0
		c0.1,0,0.2,0.1,0.2,0.2v1.5c0,0.1-0.1,0.2-0.2,0.2h0c-0.2,0-0.2-0.4-0.6-0.4H48c-0.5,0-0.5,0.4-0.7,0.4h0c-0.1,0-0.1-0.1-0.2-0.2
		l-0.5-0.9C46.5,131.5,46.7,131.4,46.8,131.4z M55.3,231c0.2,0.1,0.3,0.3,0.3,0.4c0,0.2-0.1,0.3-0.3,0.4l-7.4,2.9
		c-0.5,0.2-0.4,0.6-0.7,0.6h0c-0.1,0-0.1-0.1-0.1-0.2v-1.7c0-0.1,0.1-0.2,0.1-0.2h0c0.2,0,0.2,0.6,0.7,0.4l6.3-2.3l-4.9-1.8
		l-1.4,0.5c-0.5,0.2-0.5,0.6-0.7,0.6h0c-0.1,0-0.1-0.1-0.1-0.2v-1.7c0-0.1,0-0.2,0.1-0.2h0c0.2,0,0.2,0.6,0.7,0.4l6.3-2.1l-6.3-2
		c-0.4-0.1-0.4,0.4-0.7,0.4h0c-0.1,0-0.2-0.1-0.2-0.2v-1.2c0-0.1,0.1-0.2,0.1-0.2h0c0.2,0,0.2,0.4,0.7,0.6l7.4,2.4
		c0.2,0.1,0.3,0.3,0.3,0.5s-0.1,0.3-0.3,0.4l-5.1,1.8L55.3,231z M52.7,223.7c-1.7,0-3-1.2-3-2.8c0-1.4,0.9-2.2,1.8-2.2
		c0.4,0,0.6,0.2,0.7,0.6l1.1,3.3c1-0.3,1.7-1,1.7-2c0-0.9-0.5-1.5-1-1.7c-0.2-0.1-0.1-0.4,0.1-0.3c0.7,0.1,1.7,0.9,1.7,2.4
		C55.8,222.5,54.6,223.7,52.7,223.7z M55.8,215.1c-0.2,0-0.5-0.1-0.5-0.4c0-0.7,1.9-0.4,1.9-2.4c0-1-0.5-1.6-1.3-1.6
		c-0.8,0-1.3,0.5-1.4,1.3c0,0.2,0,0.3,0,0.5c0,1.4-1,2.6-2.3,2.6c-1.4,0-2.4-1.1-2.4-2.7c0-0.8,0.1-0.9,0.1-2.5
		c0-0.4,0.2-0.5,0.3-0.3c0.2,0.2,0.2,0.6,0.3,1c0.4-0.5,1-0.8,1.7-0.8c1,0,1.8,0.6,2.2,1.4c0.2-1,0.8-1.6,1.5-1.6
		c1.1,0,1.8,1.2,1.8,2.8C57.6,214.2,56.5,215.1,55.8,215.1z M57.1,165.8c-0.3,0-0.5-0.2-0.5-0.5c0-0.6,1.1-0.5,1.1-1.2
		c0-0.5-0.8-1-1.9-1.5l-5.1,2.3c-0.5,0.2-0.5,0.6-0.7,0.6h0c-0.1,0-0.1-0.1-0.1-0.2v-1.6c0-0.1,0.1-0.2,0.1-0.2h0
		c0.2,0,0.2,0.4,0.7,0.2l4.1-1.7l-4-1.7c-0.6-0.3-0.6,0.5-0.8,0.5h0c-0.1,0-0.1-0.1-0.1-0.2v-1.2c0-0.1,0-0.2,0.1-0.2h0
		c0.2,0,0.2,0.3,0.7,0.5l5,2.3c1.1,0.5,2.4,1,2.4,2.2C58.2,165.2,57.6,165.8,57.1,165.8z"/>
	<path class="st0" d="M52.5,210.8c-1.2,0-2.3,0.7-2.3,1.8c0,0.9,0.7,1.4,1.6,1.4c1.3,0,2.4-0.7,2.4-1.7
		C54.1,211.3,53.4,210.8,52.5,210.8z"/>
	<path class="st0" d="M52.3,114.6c1.5,0,3-0.9,3-2.2c0-0.9-0.9-1.6-2.2-1.6c-1.7,0-3,0.9-3,2.1C50.1,113.8,51,114.6,52.3,114.6z"/>
	<rect x="194.5" class="st0" width="225.5" height="325"/>
	<path class="st0" d="M53.2,171.7c-1.7,0-3,0.9-3,2.1c0,1,0.8,1.7,2.2,1.7c1.5,0,3-0.9,3-2.2C55.4,172.4,54.5,171.7,53.2,171.7z"/>
</g>
</svg>
