<?xml version="1.0" encoding="utf-8"?>
<!-- Generator: Adobe Illustrator 22.0.0, SVG Export Plug-In . SVG Version: 6.00 Build 0)  -->
<svg version="1.1" id="Laag_1" xmlns="http://www.w3.org/2000/svg" xmlns:xlink="http://www.w3.org/1999/xlink" x="0px" y="0px"
	 viewBox="0 0 56 50" style="enable-background:new 0 0 56 50;" xml:space="preserve">
<style type="text/css">
	.st0{fill:#D5D7CE;}
</style>
<g>
	<path class="st0" d="M31,16.4c-0.8,0-1.2,0.6-1.2,1.3v0.4c0,0.1,0.1,0.2,0.2,0.2h1.7c0.2,0,0.3-0.1,0.3-0.3v-0.4
		C32,16.9,31.6,16.4,31,16.4z"/>
	<path class="st0" d="M31.1,36.6c-0.9,0-1.3,0.7-1.3,1.4v0.3c0,0.1,0.1,0.2,0.2,0.2h2c0.1,0,0.2-0.1,0.2-0.2v-0.4
		C32.2,37.1,31.8,36.6,31.1,36.6z"/>
	<path class="st0" d="M0,0v50h56V0H0z M15.3,25.5h-10v-1h10V25.5z M26.5,29.6c0,0.1,0,0.1-0.1,0.1h0c-0.1,0-0.1-0.3-0.3-0.2
		l-0.7,0.3v2l0.7,0.3c0.2,0.1,0.2-0.2,0.3-0.2h0c0,0,0.1,0,0.1,0.1v0.6c0,0.1,0,0.1-0.1,0.1h0c-0.1,0-0.1-0.2-0.3-0.3L22.5,31
		c-0.2-0.1-0.3,0.2-0.4,0.2h0c0,0-0.1,0-0.1-0.1v-0.4c0-0.2,0.1-0.2,0.2-0.3l3.8-1.6c0.2-0.1,0.2-0.3,0.3-0.3h0c0,0,0.1,0,0.1,0.1
		V29.6z M26.5,24.4c0,0.1,0,0.1-0.2,0.2l-3.7,2.7H26c0.2,0,0.3-0.3,0.4-0.3h0c0,0,0.1,0.1,0.1,0.1v0.6c0,0.1,0,0.1-0.1,0.1h0
		c-0.1,0-0.1-0.2-0.4-0.2h-3.6c-0.2,0-0.2,0.2-0.3,0.2h0c0,0-0.1,0-0.1-0.1v-0.5c0-0.1,0-0.2,0.1-0.2l3.6-2.6h-3.3
		c-0.2,0-0.2,0.3-0.3,0.3h0c0,0-0.1-0.1-0.1-0.1V24c0-0.1,0-0.1,0.1-0.1h0c0.1,0,0.1,0.3,0.3,0.3h3.9c0.1,0,0.2,0.1,0.2,0.2V24.4z
		 M26.5,21.7c0,0.1,0,0.1-0.1,0.1h0c-0.1,0-0.1-0.2-0.3-0.2h-3.8v0.9c0,0.3,0.7,0.4,0.7,0.5V23c0,0.1,0,0.1-0.1,0.1L22.1,23
		C22,23,22,23,22,22.9v-3.1c0-0.1,0-0.1,0.1-0.2l0.7-0.1c0.1,0,0.1,0,0.1,0.1v0.1c0,0.2-0.7,0.3-0.7,0.6V21H26
		c0.2,0,0.2-0.2,0.3-0.2h0c0,0,0.1,0,0.1,0.1V21.7z M26.5,18.6c0,0.1,0,0.1-0.1,0.1h0c-0.1,0-0.1-0.2-0.3-0.2h-3.6
		c-0.2,0-0.2,0.2-0.4,0.2h0c0,0-0.1,0-0.1-0.1v-0.8c0-0.1,0-0.1,0.1-0.1h0c0.1,0,0.1,0.2,0.4,0.2H26c0.2,0,0.2-0.2,0.3-0.2h0
		c0,0,0.1,0.1,0.1,0.1V18.6z M34,39.2c0,0.1,0,0.1-0.1,0.1h0c-0.1,0-0.1-0.2-0.3-0.2H30c-0.2,0-0.2,0.2-0.3,0.2h0
		c0,0-0.1-0.1-0.1-0.1V38c0-1.1,0.4-2,1.5-2c1,0,1.5,0.7,1.5,1.8v0.7h1.1c0.2,0,0.2-0.2,0.3-0.2h0c0,0,0.1,0,0.1,0.1V39.2z M34,32.6
		c0,0.1,0,0.1-0.1,0.1h0c-0.1,0-0.1-0.3-0.3-0.2l-0.7,0.3v2l0.7,0.3c0.2,0.1,0.2-0.2,0.3-0.2h0c0,0,0.1,0,0.1,0.1v0.6
		c0,0.1,0,0.1-0.1,0.1h0c-0.1,0-0.1-0.2-0.3-0.3L30,34.1c-0.2-0.1-0.3,0.2-0.4,0.2h0c0,0-0.1,0-0.1-0.1v-0.4c0-0.2,0.1-0.2,0.2-0.3
		l3.8-1.6c0.2-0.1,0.2-0.3,0.3-0.3h0c0,0,0.1,0,0.1,0.1V32.6z M34,30.4c0,0.1,0,0.1-0.1,0.1h0c-0.1,0-0.1-0.2-0.3-0.2h-3.8v0.9
		c0,0.3,0.7,0.4,0.7,0.5v0.1c0,0.1,0,0.1-0.1,0.1l-0.7-0.1c-0.1,0-0.1-0.1-0.1-0.2v-3.1c0-0.1,0-0.1,0.1-0.2l0.7-0.1
		c0.1,0,0.1,0,0.1,0.1v0.1c0,0.2-0.7,0.3-0.7,0.6v0.9h3.8c0.2,0,0.2-0.2,0.3-0.2h0c0,0,0.1,0,0.1,0.1V30.4z M34,26.2
		c0,0.1,0,0.1-0.1,0.1h0c-0.1,0-0.1-0.2-0.3-0.2h-3.8V27c0,0.3,0.7,0.4,0.7,0.5v0.1c0,0.1,0,0.1-0.1,0.1l-0.7-0.1
		c-0.1,0-0.1-0.1-0.1-0.2v-3.1c0-0.1,0-0.1,0.1-0.2l0.7-0.1c0.1,0,0.1,0,0.1,0.1v0.1c0,0.2-0.7,0.3-0.7,0.6v0.9h3.8
		c0.2,0,0.2-0.2,0.3-0.2h0c0,0,0.1,0.1,0.1,0.1V26.2z M34,23.1c0,0.1,0,0.1-0.1,0.1h0c-0.1,0-0.1-0.2-0.4-0.2H30
		c-0.2,0-0.2,0.2-0.4,0.2h0c0,0-0.1,0-0.1-0.1v-2.7c0-0.1,0-0.1,0.1-0.2l0.6-0.2c0.1,0,0.1,0,0.1,0.1v0c0,0.2-0.6,0.3-0.6,0.7v1.3
		c0,0.1,0.1,0.2,0.2,0.2h1.6v-1.1c0-0.2-0.4-0.2-0.4-0.4v0c0,0,0-0.1,0.1-0.1h0.8c0.1,0,0.1,0,0.1,0.1v0c0,0.1-0.4,0.1-0.4,0.4v1.1
		l1.6,0c0.1,0,0.3-0.1,0.3-0.2v-1.5c0-0.3-0.7-0.4-0.7-0.7v0c0-0.1,0.1-0.1,0.1-0.1l0.6,0.2c0.1,0,0.1,0.1,0.1,0.2V23.1z M34,16.5
		c0,0.1,0,0.1-0.1,0.1h0c-0.1,0-0.1-0.3-0.3-0.1l-1.3,0.9c0,0,0,0.1,0,0.2l0,0.8h1.3c0.2,0,0.2-0.2,0.3-0.2h0c0,0,0.1,0,0.1,0.1V19
		c0,0.1,0,0.1-0.1,0.1h0c-0.1,0-0.1-0.2-0.3-0.2H30c-0.2,0-0.2,0.2-0.4,0.2h0c0,0-0.1,0-0.1-0.1v-1.3c0-1.1,0.4-1.9,1.4-1.9
		c0.6,0,1.1,0.4,1.3,1.1l1.4-1c0.2-0.2,0.2-0.4,0.3-0.4h0c0,0,0.1,0.1,0.1,0.1V16.5z M34,11.3c0,0.1,0,0.1-0.2,0.2l-3.7,2.7h3.4
		c0.2,0,0.3-0.3,0.4-0.3h0c0,0,0.1,0.1,0.1,0.1v0.6c0,0.1,0,0.1-0.1,0.1h0c-0.1,0-0.1-0.2-0.4-0.2H30c-0.2,0-0.2,0.2-0.3,0.2h0
		c0,0-0.1,0-0.1-0.1v-0.5c0-0.1,0-0.2,0.1-0.2l3.6-2.6H30c-0.2,0-0.2,0.3-0.3,0.3h0c0,0-0.1,0-0.1-0.1v-0.6c0-0.1,0-0.1,0.1-0.1h0
		c0.1,0,0.1,0.3,0.3,0.3h3.9c0.1,0,0.2,0.1,0.2,0.2V11.3z M50.7,25.5h-10v-0.7h10V25.5z"/>
	<polygon class="st0" points="32.6,34.8 32.6,33 30.2,33.9 	"/>
	<polygon class="st0" points="25,31.7 25,29.9 22.7,30.8 	"/>
</g>
</svg>
