<?xml version="1.0" encoding="UTF-8"?>
<svg id="Laag_2" data-name="Laag 2" xmlns="http://www.w3.org/2000/svg" viewBox="0 0 136.35 21.43">
  <defs>
    <style>
      .cls-1 {
        fill: #777;
        fill-rule: evenodd;
        stroke-width: 0px;
      }
    </style>
  </defs>
  <g id="chanel">
    <g id="g2452">
      <g id="g2414">
        <g id="g2438">
          <g id="g4">
            <path id="path6" class="cls-1" d="M19.66,15.69s-.05.1-.07.15c-1.76,3.33-5.22,5.59-9.17,5.59C4.7,21.43,0,16.64,0,10.72S4.7,0,10.42,0c3.96,0,7.44,2.32,9.18,5.69.05.07.07.1.11.2.02.02-3.33,2.43-3.36,2.38-.02-.07-.03-.11-.07-.15-.96-2.4-3.25-4-5.87-3.95-3.51.03-6.39,2.94-6.39,6.54s2.89,6.57,6.39,6.57c2.54,0,4.76-1.57,5.77-3.78.05-.08.07-.15.1-.21l3.36,2.4Z"/>
          </g>
          <g id="g8">
            <path id="path10" class="cls-1" d="M23.98.2h4.01v7.49h10.54V.2h4.05v20.83h-4.05v-9.15h-10.54v9.15h-4.01V.2Z"/>
          </g>
          <g id="g12">
            <path id="path14" class="cls-1" d="M99.21,21.03V.2h14.57v4.21h-10.5v4.16h9.71v4.16h-9.71v4.16h11.99v4.14h-16.05Z"/>
          </g>
          <g id="g16">
            <path id="path18" class="cls-1" d="M120.95,21.03V.2h4.08v16.69h11.32v4.14h-15.4Z"/>
          </g>
          <g id="g20">
            <path id="path22" class="cls-1" d="M77.32,21.03h-4.08V.2h5.66l8.92,12.53V.2h4.05v20.83h-3.23l-11.32-15.71v15.71Z"/>
          </g>
          <g id="g24">
            <path id="path26" class="cls-1" d="M57.89,4.4l-3.56,8.32h7.27l-3.72-8.32ZM52.51,16.88l-1.86,4.14h-4.83L55.05.2h5.64l9.3,20.83h-4.83l-1.88-4.14h-10.78Z"/>
          </g>
        </g>
      </g>
    </g>
  </g>
</svg>