<?xml version="1.0" encoding="UTF-8"?>
<svg id="hyperspace-logo" data-name="Laag 2" xmlns="http://www.w3.org/2000/svg" viewBox="0 0 751.75 114.6">
  <g id="Laag_1-2" data-name="Laag 1">
    <g>
      <path class="cls-1" d="M14.29,74.23v15.3H0v-15.3h14.29Z"/>
      <path class="cls-1" d="M44.13,74.23v15.3h-14.29v-15.3h14.29Z"/>
      <path class="cls-1" d="M73.97,74.23v15.3h-14.29v-15.3h14.29Z"/>
      <path class="cls-1" d="M90.02,0h12.04v36.61c3.51-7.4,9.4-13.42,19.43-13.42,17.05,0,23.45,11.03,23.45,24.7v41.63h-12.04v-40c0-11.16-4.51-16.05-13.42-16.05s-17.3,7.9-17.3,24.7v31.35h-12.16V0Z"/>
      <path class="cls-1" d="M184.05,77.36h.13c5.64-17.05,11.91-35.23,17.8-52.66h12.91c-11.41,30.34-17.68,46.64-29.21,77.36-2.88,7.77-7.65,12.54-16.42,12.54h-9.4v-10.03h7.15c6.02,0,7.15-3.26,9.03-7.77l2.13-5.64c-9.15-22.69-18.05-44.51-26.83-66.45h12.79c6.65,17.68,13.29,34.98,19.94,52.66Z"/>
      <path class="cls-1" d="M288.24,56.92c0,20.19-11.54,34.1-29.72,34.1-11.66,0-19.43-7.65-21.82-13.92h-.13v37.49h-12.29V24.7h12.16v12.79h.13c2.38-6.52,10.28-14.29,21.94-14.29,18.18,0,29.72,13.54,29.72,33.73ZM256.14,80.87c13.29,0,20.06-10.28,20.06-23.95s-7.15-23.7-20.06-23.7c-13.67,0-20.19,11.28-20.19,23.7s6.39,23.95,20.19,23.95Z"/>
      <path class="cls-1" d="M328.86,91.15c-19.18,0-32.1-13.92-32.1-34.35s13.42-33.73,31.97-33.73c22.57,0,30.22,18.05,30.47,35.11v2.26h-50.78c1,13.04,9.03,20.69,20.19,20.69,8.4,0,15.42-3.26,17.68-10.91h11.91c-3.76,13.67-14.67,20.94-29.34,20.94ZM347.04,51.03c-1-10.78-7.02-18.18-18.43-18.18s-18.43,7.4-20.06,18.18h38.49Z"/>
      <path class="cls-1" d="M384.15,37.49c3.26-9.4,9.65-13.17,19.43-13.17v11.54c-.63,0-3.01.12-4.76.5-7.27,1.13-14.54,4.51-14.54,22.82v30.34h-12.16V24.7h12.04v12.79Z"/>
      <path class="cls-1" d="M437.06,33.1c-6.02,0-11.91,3.39-11.91,8.65,0,4.89,4.76,7.65,10.66,9.15l8.53,2.13c10.03,2.51,19.43,7.27,19.43,17.93,0,13.54-13.92,20.19-25.95,20.19-11.41,0-25.33-5.27-26.58-21.31h12.04c1.5,8.02,6.52,11.28,14.92,11.28,6.39,0,13.54-2.26,13.54-9.4,0-5.52-5.27-7.27-11.16-8.78l-9.15-2.26c-9.78-2.51-18.18-8.4-18.18-18.43,0-12.04,12.29-19.18,24.07-19.18,13.04,0,24.07,6.9,25.33,21.19h-11.79c-.75-8.15-7.4-11.16-13.79-11.16Z"/>
      <path class="cls-1" d="M540.25,56.92c0,20.19-11.54,34.1-29.72,34.1-11.66,0-19.43-7.65-21.82-13.92h-.13v37.49h-12.29V24.7h12.16v12.79h.13c2.38-6.52,10.28-14.29,21.94-14.29,18.18,0,29.72,13.54,29.72,33.73ZM508.15,80.87c13.29,0,20.06-10.28,20.06-23.95s-7.15-23.7-20.06-23.7c-13.67,0-20.19,11.28-20.19,23.7s6.39,23.95,20.19,23.95Z"/>
      <path class="cls-1" d="M579.11,22.94c23.2,0,26.33,14.79,26.33,25.83v27.08c0,5.02.5,10.41,1.13,13.67h-12.79c-.25-3.01-.25-5.52-.25-8.9v-2.63h-.13c-1.76,5.02-7.15,13.04-21.19,13.04-15.3,0-22.69-9.65-22.69-19.18,0-18.18,22.82-19.06,32.47-20.69,8.53-1.5,11.41-3.76,11.41-9.15s-5.02-9.03-13.92-9.03c-7.65,0-13.42,4.51-14.92,11.28h-11.91c1.5-9.53,9.53-21.31,26.46-21.31ZM574.6,81.5c9.65,0,19.06-6.14,19.06-22.07v-8.4c-1.25,4.14-4.26,7.77-17.55,10.03-9.28,1.63-14.54,4.39-14.54,10.66,0,5.89,5.27,9.78,13.04,9.78Z"/>
      <path class="cls-1" d="M651.08,91.15c-19.94,0-33.48-14.17-33.48-33.98s13.54-33.98,33.48-33.98c16.42,0,25.83,9.03,28.59,21.19h-12.04c-2.26-6.02-6.77-11.41-16.8-11.41-12.91,0-21.06,10.53-21.06,24.2s8.15,23.95,21.06,23.95c9.03,0,14.42-4.14,17.18-11.79h12.04c-3.39,13.92-13.29,21.82-28.96,21.82Z"/>
      <path class="cls-1" d="M721.41,91.15c-19.18,0-32.1-13.92-32.1-34.35s13.42-33.73,31.97-33.73c22.57,0,30.22,18.05,30.47,35.11v2.26h-50.78c1,13.04,9.03,20.69,20.19,20.69,8.4,0,15.42-3.26,17.68-10.91h11.91c-3.76,13.67-14.67,20.94-29.34,20.94ZM739.59,51.03c-1-10.78-7.02-18.18-18.43-18.18s-18.43,7.4-20.06,18.18h38.49Z"/>
    </g>
  </g>
</svg>