<?xml version="1.0" encoding="UTF-8"?>
<svg id="Laag_2" data-name="Laag 2" xmlns="http://www.w3.org/2000/svg" viewBox="0 0 146.15 35.05">
  <defs>
    <style>
      .cls-1 {
        fill: #777;
        stroke-width: 0px;
      }
    </style>
  </defs>
  <g id="unicef">
    <g>
      <path class="cls-1" d="M125.81,0c-7.59,0-13.84,6.14-13.84,13.84s6.14,13.84,13.84,13.84,13.84-6.14,13.84-13.84-6.25-13.84-13.84-13.84M136.52,6.14c-.67.45-1.45.89-2.23,1.34-.45-.89-1-1.79-1.67-2.57.56-.33,1.12-.78,1.56-1.12,1,.56,1.79,1.45,2.34,2.34M130.72,1.56c1.12.45,2.12,1,3.13,1.79-.45.45-1,.78-1.56,1.12-.67-.78-1.45-1.45-2.23-2.12.22-.33.45-.56.67-.78M131.83,4.69c-.78.45-1.56.67-2.34,1-.33-.78-.67-1.56-1.12-2.23.45-.22.89-.45,1.23-.78.78.56,1.56,1.23,2.23,2.01M130.16,1.34c-.22.22-.45.45-.56.67-.78-.45-1.45-.89-2.34-1.23,1,0,2.01.22,2.9.56M129.15,2.34c-.33.22-.67.45-1,.56-.45-.67-.89-1.23-1.34-1.9.78.33,1.56.78,2.34,1.34M126.03,1.12c.56.56,1,1.23,1.45,2.01-.45.11-.89.22-1.45.22V1.12ZM126.03,3.91c.56,0,1.23-.11,1.79-.33.45.67.78,1.45,1.12,2.23-.89.22-1.9.33-2.9.45v-2.34ZM125.47,1.12v2.23c-.45,0-.89-.11-1.45-.22.56-.67,1-1.34,1.45-2.01M123.57,2.9c-.33-.11-.78-.33-1-.56.78-.45,1.56-.89,2.34-1.23-.56.56-1,1.12-1.34,1.79M124.35.67c-.78.33-1.56.78-2.34,1.23-.22-.22-.45-.45-.56-.67.89-.22,1.9-.45,2.9-.56M133.84,24.34c-1.79-1-1.9-2.46-1.79-2.9.11-.56.45-.33.67-.33,1.23,0,2.46-.33,4.02-2.01,1.79-1.79,2.34-5.8-.45-8.37-2.9-2.79-6.03-2.34-8.04.22-.45.56-1.45.89-2.23.89-1.34,0-.45,1-.45,1.23s-.22.33-.33.33c-.45-.11-.22.56-.22.67s-.22.33-.22.33c-.56,0-.45.45-.33.67,0,.11,0,.33-.22.45-.22.11-.33.56-.33.89,0,.56.56,1,1.45,1.67.89.67,1,1.34,1,1.79s.11,1.23.22,1.67c.22.56.22,1.67-1,1.67-1.56.11-4.24,1.23-4.47,1.34-.89.33-2.01.45-2.9.22-.45-.33-.89-.67-1.34-1.12-.22-.56.11-1.23.45-1.67.56.56,1.23.45,1.67.45s2.46-.33,2.79-.45.45-.11.56,0c.78.33,1.9.33,2.34-1.12.45-1.56-.56-1.12-.78-1-.11.11-.33,0-.22-.11.22-.33-.11-.33-.22-.33-.45,0-1,.45-1.12.56-.22.11-.33.11-.45.11-.56-.33-2.23.11-2.79-.78,0-.22-.45-3.91-.67-4.58,0-.11-.11-.33.11-.56.45-.67,1.56,0,2.23,0,.78,0,.89-.33,1.12-.56s.33-.11.45-.22c.11-.11,0-.22,0-.33s.11,0,.22-.11,0-.33,0-.45c.22-.33.67-.11.45-.78-.11-.45.11-.89.33-1.12.33-.45,1.79-2.46-.67-4.58-2.34-2.01-4.8-1.79-6.36-.11-1.56,1.67-.78,4.13-.67,4.8s-.33,1.23-.89,1.45c-.45.22-1.45.89-2.12,1.45.11-5.36,3.35-10.05,8.26-11.94.22.22.45.56.67.78-.56.45-1.79,1.45-1.79,1.45,0,0,.11,0,.33.11.11,0,.33.11.33.11,0,0,1-.89,1.56-1.23.33.33.78.56,1.23.78-.22.45-.89,1.56-.89,1.56,0,0,.11.11.22.11.11.11.22.11.22.11,0,0,.67-1.23.89-1.67.56.22,1.12.33,1.67.33v2.23c-.33,0-1.12,0-1.45-.11h-.22l.11.22c.11.11.11.22.22.33h1.34v4.13h.56v-1c.89,0,1.56-.11,2.34-.22h0l.78-.67h-.45c-.89.11-1.67.22-2.34.22h-.33v-2.57c1,0,2.12-.11,3.13-.45.22.67.78,2.34.78,2.34l.56-.22s-.56-1.67-.78-2.34c.89-.22,1.67-.67,2.46-1,.67.78,1.23,1.67,1.67,2.57-.45.22-1.12.45-1.12.45.56.11,1,.22,1,.22,0,0,.22-.11.33-.11,0,.11.11.33.11.33l.78.33-.11-.22s-.22-.56-.33-.67c.78-.33,1.56-.78,2.34-1.34,1.45,2.12,2.12,4.69,2.12,7.26.22,4.24-1.9,8.04-5.02,10.49"/>
      <path class="cls-1" d="M110.74,3.68l-.22.22c-.78.67-2.68,2.57-2.34,4.69v.11l.11.45.22-.22c1.12-1,2.01-2.79,2.34-4.8l.11-.56-.22.11Z"/>
      <path class="cls-1" d="M106.94,7.26l-.11.22c-.11.33-.33,1.12-.45,2.01-.22,1.34-.11,3.35,1,4.8l.11.22.11.22.22-.89c.22-1.56-.11-4.8-.67-6.25l-.22-.45v.11Z"/>
      <path class="cls-1" d="M105.6,12.84v.22c-.11,1.34,0,4.8,2.79,6.7l.33.22v-.45c0-1.34-1.56-5.25-2.68-6.59l-.33-.45-.11.33Z"/>
      <path class="cls-1" d="M106.05,18.98v.22c.45,2.01,2.23,5.13,5.13,6.14l.45.11-.11-.45c-.56-1.45-3.35-4.91-5.13-6.03l-.33-.22v.22Z"/>
      <path class="cls-1" d="M111.96,6.7l-.33.11c-2.12,1.34-3.13,2.9-3.13,4.91v.45l.33-.22c1.12-1,2.68-3.46,3.01-4.8l.11-.56v.11Z"/>
      <path class="cls-1" d="M110.62,10.94l-.11.22c-.56.56-2.34,2.46-2.23,4.8,0,.33.11.78.22,1.12l.11.33.22-.33c.89-1.23,2.01-4.35,1.9-5.8v-.45l-.11.11Z"/>
      <path class="cls-1" d="M110.74,15.07l-.11.22c-.89,1.34-1.34,2.68-1.34,4.02,0,.89.33,1.79.89,2.68l.22.33.11-.33c.33-.78.67-3.13.67-5.02,0-.67-.11-1.23-.22-1.56l-.11-.45-.11.11Z"/>
      <path class="cls-1" d="M111.74,19.42l-.11.22c-.22.89-.45,1.67-.33,2.57,0,1.79.89,3.24,2.46,4.24l.22.11.11-.33v-.33c0-1.45-1.12-5.25-2.01-6.36l-.22-.33-.11.22Z"/>
      <path class="cls-1" d="M108.73,25.23l.11.22c1.12,1.9,3.13,4.47,6.81,3.8h.33l-.22-.22c-.67-1-5.13-3.57-6.7-3.8l-.45-.11.11.11Z"/>
      <path class="cls-1" d="M114.2,30.14h0l-.56.11.56.22c2.34,1,5.25,1.23,7.03.67.67-.22,1-.56,1.45-1,3.01.33,5.8,2.79,7.48,4.8l.11.11h.11c.22-.11.45-.33.56-.45l.11-.11-.11-.11c-1.67-2.23-4.35-3.57-4.47-3.68-2.46-1.12-6.7-2.01-12.28-.56"/>
      <path class="cls-1" d="M114.31,23.89v.22c.33,2.23,1.23,5.13,5.02,4.8h.22l-.11-.22c-.22-1-3.68-3.91-4.91-4.69l-.33-.22.11.11Z"/>
      <path class="cls-1" d="M140.65,3.46l.11.56c.33,2.01,1.23,3.8,2.34,4.8l.22.22.11-.45v-.11c.33-2.12-1.56-4.02-2.34-4.69l-.22-.22-.22-.11Z"/>
      <path class="cls-1" d="M144.56,7.03l-.22.45c-.56,1.45-.78,4.69-.67,6.25l.22.89.11-.11.11-.22c1.23-1.45,1.23-3.35,1-4.8-.11-1-.33-1.67-.45-2.01l-.11-.22v-.22Z"/>
      <path class="cls-1" d="M146.01,12.61l-.33.45c-1.12,1.45-2.68,5.25-2.68,6.59v.45l.33-.22c2.79-1.79,2.9-5.25,2.79-6.7v-.22l-.11-.33Z"/>
      <path class="cls-1" d="M145.56,18.75l-.45.22c-1.79,1.12-4.58,4.58-5.13,6.03l-.11.45.45-.11c2.9-.89,4.8-4.13,5.13-6.14v-.22l.11-.22Z"/>
      <path class="cls-1" d="M139.65,6.47l.11.56c.45,1.45,1.79,3.91,3.01,4.91l.33.22v-.45c.11-2.01-.89-3.57-3.01-4.91l-.22-.11-.22-.22Z"/>
      <path class="cls-1" d="M140.88,10.83v.45c-.11,1.45,1.12,4.69,1.9,5.8l.22.33.11-.33c.11-.45.22-.78.22-1.12.11-2.34-1.67-4.24-2.23-4.8l-.11-.11-.11-.22Z"/>
      <path class="cls-1" d="M140.76,14.85l-.11.45c-.11.33-.22.89-.22,1.56,0,1.9.22,4.24.67,5.02l.11.33.22-.33c.56-.78.89-1.67.89-2.68,0-1.23-.45-2.68-1.34-4.02l-.11-.22-.11-.11Z"/>
      <path class="cls-1" d="M139.76,19.2l-.22.33c-.89,1.12-2.01,4.91-2.01,6.36v.33l.11.33.22-.11c1.56-1,2.34-2.46,2.46-4.24,0-.78-.11-1.67-.33-2.57l-.11-.22-.11-.22Z"/>
      <path class="cls-1" d="M143,25l-.45.11c-1.56.22-6.03,2.79-6.7,3.8l-.22.22h.33c3.68.67,5.69-1.9,6.81-3.8l.11-.22.11-.11Z"/>
      <path class="cls-1" d="M125.25,30.7c-.11,0-2.79,1.45-4.47,3.68l-.11.11.11.11c.11.11.45.33.56.45h.11l.11-.11c1.67-2.01,4.47-4.58,7.48-4.8.45.45.89.78,1.45,1,1.67.56,4.69.33,7.03-.67l.56-.22-.56-.11c-5.69-1.45-9.93-.56-12.28.56"/>
      <path class="cls-1" d="M137.3,23.67l-.33.22c-1.23.78-4.58,3.68-4.91,4.69l-.11.22h.22c3.68.33,4.58-2.57,5.02-4.8v-.22l.11-.11Z"/>
      <path class="cls-1" d="M43.09,1.34h4.69v4.24h-4.69V1.34ZM43.54,10.49h3.91v20.76h-3.91V10.49Z"/>
      <path class="cls-1" d="M13.95,10.49h3.91v20.76h-3.8v-3.01h-.11c-1.56,2.57-4.24,3.68-7.14,3.68-4.35,0-6.81-3.35-6.81-7.48v-13.95h3.91v12.28c0,3.57.78,6.25,4.58,6.25,1.56,0,3.8-.78,4.58-3.01.78-1.9.78-4.35.78-4.91v-10.6h.11Z"/>
      <path class="cls-1" d="M25.67,13.51h0c1.45-2.57,4.24-3.68,6.36-3.68,1.45,0,7.81.33,7.81,7.03v14.29h-3.91v-13.06c0-3.46-1.45-5.25-4.8-5.25,0,0-2.12-.11-3.8,1.56-.56.56-1.67,1.45-1.67,5.58v11.27h-3.91V10.49h3.91v3.01Z"/>
      <path class="cls-1" d="M63.85,17.08c-.22-2.57-1.45-4.35-4.24-4.35-3.68,0-5.13,3.24-5.13,8.04s1.45,8.04,5.13,8.04c2.57,0,4.13-1.67,4.35-4.69h3.91c-.33,4.69-3.8,7.48-8.37,7.48-6.59,0-9.27-4.69-9.27-10.72s3.01-11.05,9.6-11.05c4.35,0,7.59,2.79,7.81,7.26,0,0-3.8,0-3.8,0Z"/>
      <path class="cls-1" d="M73.67,21.54c-.33,3.57,1.23,7.37,5.13,7.37,3.01,0,4.58-1.23,5.02-4.24h4.13c-.67,4.69-4.24,7.03-9.15,7.03-6.59,0-9.27-4.69-9.27-10.72s3.01-11.05,9.6-11.05c6.14.11,9.04,4.02,9.04,9.71v1.9s-14.51,0-14.51,0ZM84.17,18.87c.11-3.46-1.45-6.14-5.25-6.14-3.24,0-5.13,2.79-5.13,6.14h10.38Z"/>
      <path class="cls-1" d="M92.65,31.03V13.17h-3.57v-2.68h3.57v-4.47c.11-4.47,3.57-5.69,6.47-5.69.89,0,1.9.22,2.79.45v3.24c-.67,0-1.34-.11-2.01-.11-2.23,0-3.46.56-3.35,2.79v3.8h4.8v2.68h-4.8v17.86h-3.91Z"/>
    </g>
  </g>
</svg>