<?xml version="1.0" encoding="utf-8"?>
<!-- Generator: Adobe Illustrator 28.1.0, SVG Export Plug-In . SVG Version: 6.00 Build 0)  -->
<svg version="1.1"
	 id="svg3388" xmlns:inkscape="http://www.inkscape.org/namespaces/inkscape" xmlns:cc="http://creativecommons.org/ns#" xmlns:rdf="http://www.w3.org/1999/02/22-rdf-syntax-ns#" xmlns:svg="http://www.w3.org/2000/svg" xmlns:sodipodi="http://sodipodi.sourceforge.net/DTD/sodipodi-0.dtd" xmlns:dc="http://purl.org/dc/elements/1.1/" inkscape:version="0.48.2 r9819" sodipodi:docname="UNIQLO logo.svg"
	 xmlns="http://www.w3.org/2000/svg" xmlns:xlink="http://www.w3.org/1999/xlink" x="0px" y="0px" viewBox="0 0 33.1 33"
	 style="enable-background:new 0 0 33.1 33;" xml:space="preserve">
<style type="text/css">
	.st0{fill:#777777;}
	.st1{fill:#FFFFFF;}
</style>
<sodipodi:namedview  bordercolor="#666666" borderopacity="1.0" fit-margin-bottom="0" fit-margin-left="0" fit-margin-right="0" fit-margin-top="0" id="base" inkscape:current-layer="layer1" inkscape:cx="71.552208" inkscape:cy="110.96551" inkscape:document-units="px" inkscape:pageopacity="0.0" inkscape:pageshadow="2" inkscape:window-height="464" inkscape:window-maximized="0" inkscape:window-width="477" inkscape:window-x="88" inkscape:window-y="88" inkscape:zoom="0.98994949" pagecolor="#ffffff" showgrid="false">
	</sodipodi:namedview>
<g id="layer1" transform="translate(-364.0975,-319.35808)" inkscape:groupmode="layer" inkscape:label="Layer 1">
	<path id="path2995" inkscape:connector-curvature="0" class="st0" d="M364.1,352.4h33.1v-33h-33.1V352.4L364.1,352.4z"/>
	<path id="path2997" inkscape:connector-curvature="0" class="st1" d="M388.5,323.9h2.1v10.4h-2.1V323.9z"/>
	<g id="g3007" transform="matrix(8.0050071,0,0,-8.0050071,432.54511,389.92446)">
		<path id="path3009" inkscape:connector-curvature="0" class="st1" d="M-7.2,7.4C-7.2,7.1-7.3,7-7.6,7C-7.8,7-8,7.1-8,7.4v0.9h0.3
			V7.4c0-0.1,0.1-0.2,0.2-0.2c0.1,0,0.2,0.1,0.2,0.2v0.9h0.3V7.4z"/>
	</g>
	<g id="g3011" transform="matrix(8.0050071,0,0,-8.0050071,492.80124,494.84192)">
		<path id="path3013" inkscape:connector-curvature="0" class="st1" d="M-13.5,18.4h-0.9v1.3h0.3v-1h0.6V18.4z"/>
	</g>
	<g id="g3015" transform="matrix(8.0050071,0,0,-8.0050071,492.80124,411.24275)">
		<path id="path3017" inkscape:connector-curvature="0" class="st1" d="M-13.5,9.6h-0.3l-0.3,0.7V9.6h-0.3v1.3h0.3l0.3-0.7v0.7h0.3
			V9.6z"/>
	</g>
	<g id="g3019" transform="matrix(8.0050071,0,0,-8.0050071,411.34382,430.69236)">
		<path id="path3021" inkscape:connector-curvature="0" class="st1" d="M-4.9,11.6c-0.2,0-0.4-0.2-0.4-0.4v-0.4
			c0-0.2,0.2-0.4,0.4-0.4c0,0,0.1,0,0.1,0l0.1-0.3h0.3l-0.1,0.4c0.1,0.1,0.1,0.2,0.1,0.3v0.4C-4.5,11.5-4.7,11.6-4.9,11.6
			 M-4.8,10.8c0-0.1-0.1-0.2-0.2-0.2c-0.1,0-0.2,0.1-0.2,0.2v0.4c0,0.1,0.1,0.2,0.2,0.2c0.1,0,0.2-0.1,0.2-0.2V10.8z"/>
	</g>
	<g id="g3023" transform="matrix(8.0050071,0,0,-8.0050071,520.54499,430.69236)">
		<path id="path3025" inkscape:connector-curvature="0" class="st1" d="M-16.4,11.6c-0.2,0-0.4-0.2-0.4-0.4v-0.4
			c0-0.2,0.2-0.4,0.4-0.4c0.2,0,0.4,0.2,0.4,0.4v0.4C-15.9,11.5-16.1,11.6-16.4,11.6 M-16.2,10.8c0-0.1-0.1-0.2-0.2-0.2
			c-0.1,0-0.2,0.1-0.2,0.2v0.4c0,0.1,0.1,0.2,0.2,0.2c0.1,0,0.2-0.1,0.2-0.2V10.8z"/>
	</g>
</g>
</svg>
