<?xml version="1.0" encoding="utf-8"?>
<!-- Generator: Adobe Illustrator 22.0.0, SVG Export Plug-In . SVG Version: 6.00 Build 0)  -->
<svg version="1.1" id="Laag_1" xmlns="http://www.w3.org/2000/svg" xmlns:xlink="http://www.w3.org/1999/xlink" x="0px" y="0px"
	 viewBox="0 0 591.3 88.5" style="enable-background:new 0 0 591.3 88.5;" xml:space="preserve">
<g>
	<path d="M4.6,10c0-0.6,0.5-1.1,1.1-1.1h21.9c0.6,0,1.4,0.4,1.9,0.8l7.7,7.7c0.5,0.5,0.8,1.3,0.8,1.9v17.6c0,0.6-0.4,1.5-0.8,1.9
		l-2.7,2.8c-0.5,0.5-0.5,1.2-0.1,1.6l2.9,2.9c0.4,0.5,0.7,1.3,0.7,1.9v21.5c0,0.6-0.4,1.4-0.8,1.9l-7.7,7.7
		c-0.5,0.5-1.3,0.8-1.9,0.8H15.6c-0.6,0-1.1,0-1.1,0s-0.6,0-1.1,0H5.8c-0.7,0-1.1-0.5-1.1-1.1V10z M15.6,18.7
		c-0.6,0-1.1,0.5-1.1,1.1v16.4c0,0.7,0.5,1.1,1.1,1.1h8c0.6,0,1.5-0.3,1.9-0.7l2-2c0.4-0.5,0.7-1.3,0.7-2v-9.4
		c0-0.6-0.4-1.5-0.7-1.9l-2-2c-0.4-0.4-1.3-0.7-1.9-0.7H15.6z M27.5,67c0.4-0.4,0.7-1.3,0.7-1.9V51.9c0-0.6-0.4-1.5-0.7-2l-1.9-1.9
		c-0.5-0.5-1.3-0.8-1.9-0.8h-8.2c-0.6,0-1.1,0.6-1.1,1.1v20.3c0,0.7,0.5,1.1,1.1,1.1h8c0.6,0,1.5-0.4,1.9-0.7L27.5,67z"/>
	<path d="M80.8,42.6c0,0.7-0.4,1.5-0.8,2l-2.9,2.9c-0.5,0.5-0.7,1.3-0.6,1.9l5.1,29.3c0.1,0.7-0.4,1.1-0.9,1.1h-7.8
		c-0.7,0-1.2-0.5-1.3-1.1l-4.3-24.4c-0.1-0.6-0.7-1-1.3-1h-7.7c-0.6,0-1.1,0.5-1,1v24.4c0,0.6-0.6,1.1-1.1,1.1h-7.6
		c-0.6,0-1.1-0.5-1.2-1.1V10.1c0-0.7,0.5-1.1,1.1-1.1h21.8c0.7,0,1.5,0.4,2,0.8l7.7,7.7c0.5,0.5,0.8,1.3,0.8,1.9V42.6z M70.1,40.5
		c0.5-0.5,0.8-1.3,0.8-2v-15c0-0.6-0.4-1.5-0.8-1.9l-2-2c-0.5-0.5-1.3-0.8-1.9-0.8h-8c-0.6,0-1.1,0.6-1.1,1.1V42
		c0,0.6,0.6,1.1,1.1,1.1h8c0.6,0,1.4-0.3,1.9-0.7L70.1,40.5z"/>
	<path d="M107.3,10c0.1-0.6,0.7-1,1.4-1h7.4c0.7-0.1,1.3,0.5,1.4,1l16.7,68.6c0.2,0.7-0.3,1.1-0.8,1.1h-8.1c-0.6,0-1.2-0.5-1.4-1.1
		l-2.3-9.8c-0.1-0.6-0.7-1.1-1.4-1H105c-0.7,0-1.3,0.5-1.4,1l-2.3,9.8c-0.2,0.7-0.7,1.1-1.4,1.1h-8.1c-0.6,0-0.9-0.5-0.8-1.1
		L107.3,10z M106.5,56.6c-0.1,0.7,0.3,1.1,0.8,1.1h10.5c0.7,0,1-0.6,0.8-1.1l-5.9-24.1c-0.2-0.6-0.5-0.6-0.6,0L106.5,56.6z"/>
	<path d="M166.4,45.6c0.2,0.6,0.4,0.6,0.4-0.1V10c0-0.6,0.6-1.1,1.1-1.1h7.6c0.7,0,1.1,0.6,1.1,1.1v68.6c0,0.7-0.5,1.1-1.1,1.1h-6.1
		c-0.7,0-1.3-0.5-1.5-1l-14.3-39.9c-0.3-0.6-0.4-0.5-0.4,0.1v39.7c0,0.7-0.6,1.1-1.1,1.1h-7.6c-0.6,0-1.1-0.5-1.1-1.1V10.1
		c0-0.7,0.5-1.1,1.1-1.1h7.6c0.7,0,1.3,0.5,1.5,1L166.4,45.6z"/>
	<path d="M187,79.7c-0.7,0-1.1-0.5-1.1-1.1V10.1c0-0.7,0.5-1.1,1.1-1.1h21.9c0.6,0,1.5,0.3,1.9,0.7l7.7,7.7c0.5,0.5,0.8,1.3,0.8,2
		v49.9c0,0.6-0.4,1.5-0.8,1.9l-7.7,7.7c-0.4,0.5-1.3,0.8-1.9,0.8H187z M204.8,69.8c0.6,0,1.5-0.4,1.9-0.8l2-2
		c0.5-0.4,0.8-1.3,0.8-1.9V23.5c0-0.7-0.4-1.5-0.8-2l-2-2c-0.4-0.4-1.3-0.7-1.9-0.7h-8c-0.6,0-1.1,0.5-1.1,1.1v48.8
		c0,0.6,0.6,1.1,1.1,1.1H204.8z"/>
	<path d="M274.8,45.6c0.2,0.6,0.4,0.6,0.4-0.1V10c0-0.6,0.6-1.1,1.1-1.1h7.6c0.7,0,1.1,0.6,1.1,1.1v68.6c0,0.7-0.5,1.1-1.1,1.1h-6.1
		c-0.6,0-1.3-0.5-1.5-1L262,38.8c-0.3-0.6-0.4-0.5-0.4,0.1v39.7c0,0.7-0.6,1.1-1.1,1.1h-7.6c-0.7,0-1.1-0.5-1.1-1.1V10.1
		c0-0.7,0.5-1.1,1.1-1.1h7.6c0.7,0,1.3,0.5,1.5,1L274.8,45.6z"/>
	<path d="M322.7,17.8c0,0.6-0.6,1.1-1.1,1.1h-16.3c-0.7,0-1.1,0.5-1.1,1.1v13.2c0,0.7,0.5,1.1,1.1,1.1h12.4c0.6,0,1.1,0.6,1.1,1.1
		v7.6c0,0.6-0.6,1.1-1.1,1.1h-12.4c-0.7,0-1.1,0.6-1.1,1.1v23.4c0,0.7,0.5,1.1,1.1,1.1h16.3c0.6,0,1.1,0.5,1.1,1.1v7.6
		c0,0.7-0.6,1.1-1.1,1.1h-26.2c-0.7,0-1.1-0.5-1.1-1.1V10.2c0-0.7,0.5-1.1,1.1-1.1h26.2c0.6,0,1.1,0.5,1.1,1.1V17.8z"/>
	<path d="M372,51.6c0.1,0.6,0.3,0.6,0.4,0l7.4-41.6c0.1-0.6,0.7-1,1.3-1h7.7c0.7,0,1,0.5,0.9,1l-12.2,68.6c-0.1,0.7-0.7,1.1-1.3,1.1
		h-8.5c-0.7,0-1.2-0.5-1.3-1.1L360.2,40c-0.1-0.6-0.3-0.6-0.4,0l-6.1,38.6c-0.1,0.7-0.7,1.1-1.3,1.1h-8.5c-0.7,0-1.2-0.5-1.3-1.1
		L330.2,10c-0.1-0.6,0.3-1,0.9-1h7.8c0.6,0,1.2,0.5,1.3,1l7.4,41.6c0.1,0.6,0.3,0.6,0.4,0l6.7-41.6c0.1-0.6,0.2-1,0.3-1s0.7,0,1.3,0
		h7.4c0.6,0,1.1,0,1.2,0s0.3,0.5,0.4,1L372,51.6z"/>
	<path d="M429.9,9.8c0.4-0.5,1.3-0.8,1.9-0.8h12.5c0.6,0,1.4,0.4,1.9,0.8l7.7,7.7c0.5,0.5,0.8,1.3,0.8,1.9V29c0,0.7-0.6,1.1-1.1,1.1
		H446c-0.7,0-1.1-0.5-1.1-1.1v-5.6c0-0.6-0.4-1.5-0.7-1.9l-2-2c-0.4-0.5-1.3-0.8-1.9-0.8h-4.4c-0.7,0-1.5,0.4-1.9,0.8l-2,2
		c-0.4,0.4-0.7,1.3-0.7,1.9v41.7c0,0.7,0.4,1.5,0.7,1.9l2,2c0.4,0.4,1.2,0.7,1.9,0.7h4.4c0.6,0,1.5-0.4,1.9-0.7l2-2
		c0.4-0.4,0.7-1.2,0.7-1.9V48.3c0-0.7-0.5-1.1-1.1-1.1h-4.6c-0.7,0-1.1-0.6-1.1-1.1v-7.6c0-0.7,0.5-1.1,1.1-1.1h14.5
		c0.6,0,1.1,0.5,1.1,1.1v30.8c0,0.6-0.4,1.5-0.8,1.9l-7.7,7.8c-0.5,0.4-1.3,0.7-1.9,0.7h-12.5c-0.6,0-1.5-0.4-1.9-0.7l-7.8-7.8
		c-0.4-0.4-0.7-1.3-0.7-1.9V19.4c0-0.6,0.4-1.4,0.7-1.9L429.9,9.8z"/>
	<path d="M486.7,67.1c0.5-0.5,0.7-1.3,0.7-2V10.1c0-0.7,0.6-1.1,1.1-1.1h7.6c0.7,0,1.1,0.5,1.1,1.1v59.2c0,0.7-0.4,1.5-0.7,2
		l-7.7,7.7c-0.5,0.4-1.3,0.7-2,0.7h-12.4c-0.7,0-1.5-0.4-2-0.7l-7.7-7.7c-0.4-0.5-0.7-1.3-0.7-2V10.1c0-0.7,0.5-1.1,1.1-1.1h7.6
		c0.6,0,1.1,0.5,1.1,1.1v55.1c0,0.7,0.4,1.5,0.7,2l2,2c0.5,0.4,1.3,0.7,2,0.7h4.3c0.7,0,1.5-0.4,2-0.7L486.7,67.1z"/>
	<path d="M525.3,30c0.2,0.7,0.6,0.7,0.8,0l8.1-20c0.2-0.6,0.9-1,1.5-1h8.5c0.6,0,0.9,0.5,0.7,1l-13.7,34.1c-0.2,0.6-0.4,1.6-0.4,2.1
		v32.3c0,0.7-0.6,1.1-1.1,1.1H522c-0.7,0-1.1-0.5-1.1-1.1V46.4c0-0.6-0.2-1.6-0.5-2.1L506.7,10c-0.3-0.6,0.1-1,0.7-1h8.5
		c0.6,0,1.3,0.5,1.5,1L525.3,30z"/>
	<path d="M561.8,9.8c0.5-0.5,1.3-0.8,1.9-0.8h12.5c0.7,0,1.5,0.4,2,0.8l7.7,7.7c0.4,0.5,0.7,1.3,0.7,1.9V29c0,0.7-0.5,1.1-1.1,1.1
		h-7.6c-0.6,0-1.1-0.5-1.1-1.1v-5.6c0-0.6-0.3-1.5-0.7-1.9l-2-2c-0.5-0.4-1.3-0.7-2-0.7h-4.4c-0.6,0-1.4,0.4-1.9,0.7l-2,2
		c-0.5,0.4-0.8,1.3-0.8,1.9v9.8c0,0.6,0.4,1.5,0.7,1.9l2,2c0.4,0.5,1.2,0.8,1.9,0.8h8.5c0.6,0,1.5,0.4,1.9,0.7l7.8,7.7
		c0.4,0.5,0.7,1.3,0.7,2v20.9c0,0.6-0.4,1.5-0.7,1.9l-7.7,7.8c-0.5,0.4-1.3,0.7-2,0.7h-12.5c-0.6,0-1.4-0.4-1.9-0.7l-7.7-7.8
		c-0.5-0.4-0.8-1.3-0.8-1.9V57.4c0-0.7,0.6-1.1,1.1-1.1h7.6c0.7,0,1.1,0.5,1.1,1.1v7.8c0,0.7,0.4,1.5,0.8,2l2,2
		c0.5,0.4,1.3,0.7,1.9,0.7h4.4c0.7,0,1.5-0.4,2-0.7l2-2c0.5-0.5,0.7-1.3,0.7-2V52.4c0-0.7-0.3-1.5-0.7-2l-2-2
		c-0.4-0.5-1.2-0.7-1.9-0.7h-8.5c-0.6,0-1.5-0.4-1.9-0.8l-7.8-7.7c-0.4-0.5-0.7-1.3-0.7-2V19.4c0-0.6,0.4-1.4,0.8-1.9L561.8,9.8z"/>
</g>
</svg>
